<?xml version="1.0" encoding="UTF-8"?>
<svg version="1.1" xmlns="http://www.w3.org/2000/svg" width="1888" height="1488">
<path d="M0 0 C1.99881177 -0.00346344 3.99762162 -0.00823258 5.99642754 -0.01418173 C11.44780264 -0.02662707 16.89901881 -0.02055096 22.35039425 -0.01122308 C28.2455086 -0.00440628 34.14059654 -0.01492682 40.03570557 -0.02316284 C51.56797526 -0.03647437 63.10018625 -0.03363394 74.63245821 -0.02492492 C84.00837435 -0.01803151 93.38427494 -0.01715674 102.76019287 -0.02049637 C103.42776288 -0.02072552 104.09533289 -0.02095468 104.7831323 -0.02119078 C107.49341392 -0.02212488 110.20369554 -0.02308009 112.91397714 -0.02407007 C138.30822932 -0.03323504 163.70244957 -0.0249458 189.09669682 -0.00877938 C211.62909754 0.0054561 234.16144738 0.00418216 256.69384766 -0.01016235 C282.04338676 -0.02624659 307.39289768 -0.03258492 332.74244118 -0.02332556 C335.44761784 -0.02236349 338.15279451 -0.02142497 340.85797119 -0.02049637 C341.85700428 -0.02014052 341.85700428 -0.02014052 342.87621985 -0.01977748 C352.90802747 -0.01637346 362.93981378 -0.02035914 372.97161865 -0.02793503 C384.38491877 -0.03636507 395.79815703 -0.03403825 407.2114501 -0.0180928 C413.03014371 -0.01023037 418.84873431 -0.00708385 424.66742706 -0.01704025 C430.0018502 -0.0260297 435.33607558 -0.02098466 440.67048097 -0.0051076 C442.59221079 -0.00177772 444.51395758 -0.00341305 446.43567634 -0.01073496 C481.72387197 -0.13479138 512.21549057 12.62532589 537.80908203 37.00595093 C551.01907297 50.59277204 560.48218882 66.85051755 566.68408203 84.69345093 C566.95833008 85.46124878 567.23257813 86.22904663 567.51513672 87.02011108 C572.90112391 103.54271402 573.24413153 120.92214704 573.1496582 138.12216187 C573.14880954 140.32212818 573.14929172 142.52209533 573.15098572 144.72206116 C573.15183778 150.62778991 573.13434149 156.53333158 573.11326385 162.4390173 C573.0943638 168.63557393 573.09273619 174.83213602 573.08918762 181.02871704 C573.07990599 192.73306902 573.05534534 204.43733579 573.02513915 216.14165044 C573.00152848 225.49566656 572.98500197 234.84966655 572.97387695 244.20370483 C572.97308878 244.86455038 572.97230061 245.52539592 572.97148856 246.20626709 C572.96757279 249.52230218 572.96378862 252.8383374 572.96005285 256.15437269 C572.92879188 283.56327914 572.87610778 310.97211023 572.80908203 338.38095093 C575.44908203 338.38095093 578.08908203 338.38095093 580.80908203 338.38095093 C580.80908203 388.87095093 580.80908203 439.36095093 580.80908203 491.38095093 C578.16908203 491.38095093 575.52908203 491.38095093 572.80908203 491.38095093 C572.80939399 492.08684496 572.80970595 492.792739 572.81002737 493.52002376 C572.84392192 570.37608918 572.87533251 647.23215546 572.89376831 724.08822632 C572.89404442 725.23636324 572.89432054 726.38450016 572.89460502 727.56742911 C572.9005909 752.51983205 572.90613126 777.47223507 572.91121269 802.42463821 C572.91370735 814.66137788 572.91630046 826.89811754 572.91894531 839.13485718 C572.91920683 840.35255667 572.91946835 841.57025616 572.91973779 842.82485564 C572.92825973 882.29049873 572.9432818 921.75613608 572.96167647 961.2217757 C572.98054582 1001.77950642 572.99285389 1042.33723397 572.99691201 1082.89496901 C572.99748832 1088.62411183 572.99813959 1094.35325465 572.99883652 1100.08239746 C572.99897136 1101.20996949 572.99910621 1102.33754151 572.99924514 1103.49928238 C573.00160812 1121.6464698 573.01088303 1139.79364742 573.0227461 1157.94083084 C573.03452628 1176.18704875 573.03901655 1194.43325695 573.03608479 1212.67947853 C573.03456422 1223.51843885 573.03861391 1234.35736359 573.05067712 1245.19631749 C573.0581895 1252.44168388 573.05840046 1259.68702704 573.05274566 1266.93239504 C573.04973303 1271.0575158 573.04982738 1275.18256938 573.0588484 1279.30768287 C573.06701203 1283.06948248 573.06575463 1286.83116322 573.05736198 1290.59296125 C573.05528684 1292.56469493 573.06292335 1294.5364318 573.07109898 1296.50814962 C573.02642137 1308.49244593 572.05765373 1320.70505751 568.68408203 1332.25595093 C568.47162842 1332.99369751 568.2591748 1333.73144409 568.0402832 1334.49154663 C558.61201143 1365.74605261 537.46731255 1392.77542858 508.68701172 1408.38143921 C508.06729492 1408.71127808 507.44757812 1409.04111694 506.80908203 1409.38095093 C506.20483398 1409.70434448 505.60058594 1410.02773804 504.97802734 1410.3609314 C484.83159898 1420.93212285 463.70135626 1423.69079335 441.22016907 1423.64164734 C439.25012177 1423.64467201 437.28007566 1423.64856307 435.31003159 1423.65323991 C429.9241815 1423.66348808 424.53839821 1423.6613462 419.15254271 1423.65705931 C413.33300606 1423.65458627 407.51348526 1423.66361347 401.69395447 1423.6710968 C390.30299086 1423.6838302 378.91205084 1423.68563915 367.52108131 1423.68329654 C358.25857554 1423.68151154 348.99607692 1423.68326692 339.73357201 1423.68752098 C338.41390771 1423.68811617 337.09424342 1423.68871136 335.7345893 1423.68932458 C333.72562597 1423.69023189 331.71666264 1423.69114056 329.70769931 1423.69205694 C311.03966936 1423.70048121 292.371642 1423.70482585 273.70361042 1423.70065022 C273.00051536 1423.70049384 272.29742029 1423.70033746 271.57301932 1423.70017635 C268.00985282 1423.69937062 264.44668634 1423.69852485 260.88351987 1423.69766305 C260.17592668 1423.69749196 259.46833348 1423.69732087 258.73929808 1423.6971446 C257.30837378 1423.69679794 255.87744948 1423.69644941 254.44652519 1423.69609901 C232.189839 1423.69074386 209.93319246 1423.69866852 187.67651367 1423.71713257 C162.64157501 1423.73787738 137.60666089 1423.74857048 112.57171315 1423.74455708 C109.8990324 1423.74416177 107.22635164 1423.74380022 104.55367088 1423.7434597 C103.23879383 1423.74329186 101.92391678 1423.74312402 100.56919498 1423.7429511 C91.32562922 1423.74251409 82.08208572 1423.74939019 72.83852577 1423.75927162 C61.5620897 1423.77120455 50.28571196 1423.77256892 39.00927506 1423.76048145 C33.26123553 1423.75460596 27.51330257 1423.75345648 21.76527023 1423.76548386 C16.49292415 1423.77638722 11.22077306 1423.77318661 5.94843592 1423.75922217 C4.05147785 1423.75658744 2.15450428 1423.75890282 0.25756148 1423.76695804 C-14.74247345 1423.82618158 -29.84709038 1422.8348898 -44.12841797 1417.81845093 C-44.8523877 1417.56942017 -45.57635742 1417.3203894 -46.32226562 1417.06381226 C-77.29193373 1405.8723948 -102.98900994 1383.0369278 -117.16748047 1353.32626343 C-126.85784315 1332.24915576 -129.65833364 1311.42649839 -129.56844139 1288.43335724 C-129.57157822 1286.37897384 -129.57602745 1284.32459211 -129.58165449 1282.27021402 C-129.59326887 1276.65454529 -129.5863827 1271.03903261 -129.57632063 1265.4233666 C-129.56868007 1259.30262467 -129.57850231 1253.18190585 -129.58605063 1247.06116724 C-129.59686749 1236.34347271 -129.59666988 1225.62582924 -129.58890915 1214.90813637 C-129.58063801 1203.41533401 -129.57892828 1191.92255823 -129.58512115 1180.42975426 C-129.58550867 1179.70223893 -129.58589619 1178.9747236 -129.58629545 1178.22516236 C-129.58789537 1175.26181464 -129.58954151 1172.29846695 -129.59124628 1169.33511929 C-129.60709207 1141.77130512 -129.60820022 1114.20750876 -129.59980392 1086.64369202 C-129.59955554 1085.82787913 -129.59930715 1085.01206624 -129.59905124 1084.17153175 C-129.59880245 1083.3544051 -129.59855366 1082.53727845 -129.59829733 1081.69539039 C-129.59072261 1056.78379713 -129.58877601 1031.87221123 -129.59236526 1006.96061707 C-129.5925977 1005.29130295 -129.59282917 1003.62198883 -129.59305967 1001.95267471 C-129.59399111 995.24410122 -129.59494711 988.53552773 -129.59593897 981.82695425 C-129.59868976 963.0746514 -129.60040173 944.32234851 -129.60129738 925.57004547 C-129.60133832 924.71616721 -129.60137925 923.86228894 -129.60142143 922.98253558 C-129.60264895 895.78133231 -129.59927023 868.5801316 -129.59274864 841.37892914 C-129.59253789 840.49690767 -129.59232715 839.6148862 -129.59211001 838.70613681 C-129.58867532 824.38340687 -129.58501686 810.060677 -129.58133949 795.73794713 C-129.5667709 738.93518478 -129.56744711 682.13244365 -129.58203125 625.3296814 C-129.58569493 611.01411186 -129.58932813 596.69854232 -129.59274864 582.38297272 C-129.59295999 581.50146628 -129.59317133 580.61995985 -129.59338908 579.7117411 C-129.5998593 552.53844586 -129.60260014 525.36515238 -129.60129738 498.19185638 C-129.60125663 497.33860811 -129.60121587 496.48535983 -129.60117388 495.60625554 C-129.60023638 476.87465585 -129.59833532 458.14305634 -129.59556587 439.41145684 C-129.59457848 432.70894321 -129.59363923 426.00642957 -129.59271374 419.30391594 C-129.59248157 417.63656224 -129.59224538 415.96920855 -129.59200515 414.30185486 C-129.58842688 389.3980235 -129.59146882 364.49420043 -129.59905124 339.59037011 C-129.59929963 338.77455722 -129.59954801 337.95874433 -129.59980392 337.11820984 C-129.60005197 336.30390726 -129.60030002 335.48960467 -129.60055558 334.65062626 C-129.60883649 307.16501799 -129.60577374 279.67943106 -129.58996169 252.19382584 C-129.58830469 249.23993312 -129.58669457 246.28604037 -129.58512115 243.3321476 C-129.58473053 242.60723052 -129.58433991 241.88231344 -129.58393746 241.13542918 C-129.57802959 229.67559961 -129.58213006 218.21579667 -129.59042817 206.7559695 C-129.59838098 195.4767087 -129.59529591 184.19749226 -129.58138591 172.91823348 C-129.57425347 166.88940455 -129.5718015 160.8606761 -129.58260386 154.83185035 C-129.59234472 149.33936864 -129.58810601 143.8470759 -129.57306188 138.35460777 C-129.57005865 136.38772282 -129.57199016 134.42082196 -129.57967969 132.45394974 C-129.7136137 95.55560217 -118.93374896 63.34497884 -93.19091797 36.38095093 C-92.66626953 35.79313843 -92.14162109 35.20532593 -91.60107422 34.59970093 C-79.29902431 21.32726031 -62.0957791 11.80576389 -45.12841797 6.00595093 C-44.46994873 5.77931763 -43.81147949 5.55268433 -43.13305664 5.31918335 C-28.82662591 0.76612538 -14.87289024 -0.05666697 0 0 Z " fill="#1A1826" transform="translate(349.19091796875,-0.380950927734375)"/>
<path d="M0 0 C1.24511454 -0.00307895 1.24511454 -0.00307895 2.51538292 -0.0062201 C5.30908964 -0.01189432 8.10274714 -0.01043233 10.89645863 -0.00901413 C12.91479973 -0.01159752 14.93314033 -0.01461061 16.95148021 -0.01801753 C22.50765105 -0.0260938 28.06380897 -0.02787745 33.61998498 -0.028615 C39.60855956 -0.03046445 45.59712743 -0.03801123 51.58569813 -0.04475021 C65.36797786 -0.05904703 79.15025579 -0.06486059 92.93254112 -0.06944216 C99.74371418 -0.0717784 106.55488639 -0.07538107 113.36605879 -0.07913754 C136.68301067 -0.09197256 159.99996208 -0.10269193 183.31691742 -0.10614014 C184.78049145 -0.10636177 186.24406548 -0.10658355 187.7076395 -0.10680549 C189.17473993 -0.10702613 190.64184035 -0.10724661 192.10894078 -0.10746694 C195.05217691 -0.10790949 197.99541305 -0.1083566 200.93864918 -0.10880661 C201.66840008 -0.108916 202.39815097 -0.10902539 203.15001553 -0.1091381 C226.81260324 -0.11276879 250.4751603 -0.12868954 274.13773627 -0.15199697 C299.15732623 -0.17659598 324.17689868 -0.190313 349.19650108 -0.19150805 C351.94330713 -0.19167951 354.69011317 -0.19189494 357.43691921 -0.19214249 C358.45142472 -0.19222614 358.45142472 -0.19222614 359.48642528 -0.19231148 C370.36788637 -0.19346185 381.24931601 -0.20448257 392.13076648 -0.21902954 C403.06916418 -0.23339973 414.0075269 -0.23637617 424.94593229 -0.22858956 C430.87115012 -0.22467913 436.79626216 -0.22563197 442.72146702 -0.23964691 C448.14667591 -0.25236193 453.57169926 -0.25120929 458.99690781 -0.2390562 C460.95856705 -0.23709506 462.92023933 -0.24019684 464.88188025 -0.24890056 C480.73180503 -0.31476825 491.83879309 1.07881162 503.99065113 12.16658401 C510.93703979 19.34755991 515.86953232 29.23665744 515.89440346 39.38232708 C515.8988613 40.22873931 515.90331915 41.07515155 515.90791208 41.94721264 C515.90763553 43.33468491 515.90763553 43.33468491 515.9073534 44.75018692 C515.91103009 45.73673549 515.91470678 46.72328405 515.91849488 47.73972803 C515.92953329 51.0551143 515.93337588 54.37046923 515.93718433 57.68587112 C515.943449 60.05942764 515.9500958 62.43298317 515.95709705 64.80653763 C515.97632636 71.93736153 515.98692698 79.068186 515.99582484 86.19902858 C516.00021183 89.56100786 516.00557769 92.92298557 516.01081371 96.28496361 C516.02782674 107.46870312 516.04231834 118.65244167 516.04956245 129.83619213 C516.05147221 132.73741978 516.05339256 135.63864742 516.0553484 138.53987503 C516.05583214 139.26092238 516.05631588 139.98196973 516.05681428 140.72486699 C516.06510492 152.3911931 516.09042511 164.05741635 516.12292907 175.7236976 C516.1560632 187.71445063 516.17401707 199.70515153 516.1772067 211.69595057 C516.17936627 218.42289486 516.1880332 225.1496893 516.21366787 231.87658882 C516.2370003 238.21068843 516.24116081 244.54451917 516.23090649 250.87865067 C516.23041224 253.19689772 516.23669976 255.51515823 516.25046253 257.83336449 C516.34486119 274.68402073 515.83399313 289.29027597 503.76018238 302.28377151 C495.55085061 310.1559343 486.06343168 314.2886149 474.74804974 314.26285553 C473.91829309 314.26490816 473.08853645 314.2669608 472.23363566 314.26907563 C469.42898318 314.27476925 466.62437945 314.27328548 463.81972218 314.27186966 C461.79826969 314.27445195 459.77681771 314.27746473 457.75536644 314.28087306 C452.18134473 314.28896244 446.60733587 314.29073371 441.03330898 314.29147053 C435.02903998 314.29331774 429.02477771 314.30086343 423.02051258 314.30760574 C409.19664016 314.32191315 395.37276952 314.32771763 381.54889151 314.33229769 C374.71858846 314.33463281 367.88828625 314.33823538 361.05798386 314.34199307 C337.68023907 314.35482994 314.30249475 314.36554863 290.92474651 314.36899567 C289.45683974 314.3692173 287.98893297 314.36943908 286.5210262 314.36966102 C285.04955547 314.36988166 283.57808473 314.37010214 282.10661399 314.37032247 C279.15454825 314.37076502 276.2024825 314.37121214 273.25041676 314.37166214 C272.51847448 314.37177153 271.78653221 314.37188092 271.03240987 314.37199363 C247.30096452 314.37562398 223.56954972 314.39154252 199.83811607 314.4148525 C174.7521253 314.43944796 149.66615199 314.45316839 124.58014882 314.45436358 C121.82630833 314.45453504 119.07246784 314.45475047 116.31862736 314.45499802 C115.64054678 314.45505379 114.9624662 314.45510955 114.26383773 314.45516701 C103.35045495 314.45631777 92.43710351 314.46734193 81.52373132 314.48188507 C70.55374103 314.49625084 59.58378563 314.4992341 48.6137877 314.49144509 C42.6704804 314.48753291 36.72727857 314.48849594 30.78398418 314.50250244 C25.34332777 314.51520724 19.90285645 314.51407387 14.46220042 314.50191173 C12.49376976 314.49994879 10.52532615 314.50306061 8.55691372 314.51175609 C5.88017204 314.52283209 3.20408547 314.51537145 0.52736187 314.50336456 C-0.61748755 314.51475735 -0.61748755 314.51475735 -1.78546524 314.5263803 C-12.17562639 314.42584805 -21.78130458 310.02691236 -29.47419262 303.12752151 C-35.80473183 296.47569554 -41.35567176 287.30025368 -41.37124538 277.88028812 C-41.37508653 277.00839968 -41.37892767 276.13651123 -41.38288522 275.23820192 C-41.38201874 274.27966032 -41.38115225 273.32111873 -41.38025951 272.33353043 C-41.38323064 271.31572359 -41.38620176 270.29791675 -41.38926291 269.24926728 C-41.39796774 265.82236529 -41.39945968 262.39549816 -41.40095043 258.96858597 C-41.40557738 256.51809997 -41.41060187 254.0676147 -41.4159956 251.61713028 C-41.42913433 244.94756066 -41.43560416 238.27800473 -41.44000626 231.60842538 C-41.44276885 227.44321646 -41.44700628 223.27800986 -41.45151043 219.11280251 C-41.46370424 207.57909446 -41.47400274 196.04538828 -41.47738552 184.51167393 C-41.47760509 183.77338897 -41.47782465 183.03510402 -41.47805087 182.2744468 C-41.47826915 181.53439777 -41.47848743 180.79434875 -41.47871232 180.031874 C-41.47915579 178.53226236 -41.47960235 177.03265073 -41.48005199 175.53303909 C-41.48027342 174.78918039 -41.48049485 174.04532168 -41.48072299 173.27892181 C-41.48466938 161.23088376 -41.50211803 149.18290627 -41.52541152 137.13489161 C-41.54913717 124.76337983 -41.56158796 112.39189841 -41.56275344 100.02036351 C-41.56366962 93.07505986 -41.56940726 86.12983506 -41.58757305 79.18455315 C-41.60460363 72.65025936 -41.60621754 66.11608869 -41.59743404 59.58176994 C-41.59666272 57.18402582 -41.60101889 54.78627372 -41.6108923 52.3885498 C-41.62358644 49.1136024 -41.61774828 45.83918702 -41.6073103 42.56424332 C-41.6153667 41.61685533 -41.6234231 40.66946735 -41.63172364 39.69337064 C-41.55311935 29.13787479 -37.32145804 19.7095503 -30.20075512 11.89314651 C-21.15406867 3.40588414 -12.28240631 -0.02822017 0 0 Z " fill="#6B62FE" transform="translate(334.23981761932373,758.8685722351074)"/>
<path d="M0 0 C1.99881177 -0.00346344 3.99762162 -0.00823258 5.99642754 -0.01418173 C11.44780264 -0.02662707 16.89901881 -0.02055096 22.35039425 -0.01122308 C28.2455086 -0.00440628 34.14059654 -0.01492682 40.03570557 -0.02316284 C51.56797526 -0.03647437 63.10018625 -0.03363394 74.63245821 -0.02492492 C84.00837435 -0.01803151 93.38427494 -0.01715674 102.76019287 -0.02049637 C103.42776288 -0.02072552 104.09533289 -0.02095468 104.7831323 -0.02119078 C107.49341392 -0.02212488 110.20369554 -0.02308009 112.91397714 -0.02407007 C138.30822932 -0.03323504 163.70244957 -0.0249458 189.09669682 -0.00877938 C211.62909754 0.0054561 234.16144738 0.00418216 256.69384766 -0.01016235 C282.04338676 -0.02624659 307.39289768 -0.03258492 332.74244118 -0.02332556 C335.44761784 -0.02236349 338.15279451 -0.02142497 340.85797119 -0.02049637 C341.85700428 -0.02014052 341.85700428 -0.02014052 342.87621985 -0.01977748 C352.90802747 -0.01637346 362.93981378 -0.02035914 372.97161865 -0.02793503 C384.38491877 -0.03636507 395.79815703 -0.03403825 407.2114501 -0.0180928 C413.03014371 -0.01023037 418.84873431 -0.00708385 424.66742706 -0.01704025 C430.0018502 -0.0260297 435.33607558 -0.02098466 440.67048097 -0.0051076 C442.59221079 -0.00177772 444.51395758 -0.00341305 446.43567634 -0.01073496 C481.72387197 -0.13479138 512.21549057 12.62532589 537.80908203 37.00595093 C551.01907297 50.59277204 560.48218882 66.85051755 566.68408203 84.69345093 C566.95833008 85.46124878 567.23257813 86.22904663 567.51513672 87.02011108 C572.90112391 103.54271402 573.24413153 120.92214704 573.1496582 138.12216187 C573.14880954 140.32212818 573.14929172 142.52209533 573.15098572 144.72206116 C573.15183778 150.62778991 573.13434149 156.53333158 573.11326385 162.4390173 C573.0943638 168.63557393 573.09273619 174.83213602 573.08918762 181.02871704 C573.07990599 192.73306902 573.05534534 204.43733579 573.02513915 216.14165044 C573.00152848 225.49566656 572.98500197 234.84966655 572.97387695 244.20370483 C572.97308878 244.86455038 572.97230061 245.52539592 572.97148856 246.20626709 C572.96757279 249.52230218 572.96378862 252.8383374 572.96005285 256.15437269 C572.92879188 283.56327914 572.87610778 310.97211023 572.80908203 338.38095093 C575.44908203 338.38095093 578.08908203 338.38095093 580.80908203 338.38095093 C580.80908203 388.87095093 580.80908203 439.36095093 580.80908203 491.38095093 C578.16908203 491.38095093 575.52908203 491.38095093 572.80908203 491.38095093 C572.80939399 492.08684496 572.80970595 492.792739 572.81002737 493.52002376 C572.84392192 570.37608918 572.87533251 647.23215546 572.89376831 724.08822632 C572.89404442 725.23636324 572.89432054 726.38450016 572.89460502 727.56742911 C572.9005909 752.51983205 572.90613126 777.47223507 572.91121269 802.42463821 C572.91370735 814.66137788 572.91630046 826.89811754 572.91894531 839.13485718 C572.91920683 840.35255667 572.91946835 841.57025616 572.91973779 842.82485564 C572.92825973 882.29049873 572.9432818 921.75613608 572.96167647 961.2217757 C572.98054582 1001.77950642 572.99285389 1042.33723397 572.99691201 1082.89496901 C572.99748832 1088.62411183 572.99813959 1094.35325465 572.99883652 1100.08239746 C572.99897136 1101.20996949 572.99910621 1102.33754151 572.99924514 1103.49928238 C573.00160812 1121.6464698 573.01088303 1139.79364742 573.0227461 1157.94083084 C573.03452628 1176.18704875 573.03901655 1194.43325695 573.03608479 1212.67947853 C573.03456422 1223.51843885 573.03861391 1234.35736359 573.05067712 1245.19631749 C573.0581895 1252.44168388 573.05840046 1259.68702704 573.05274566 1266.93239504 C573.04973303 1271.0575158 573.04982738 1275.18256938 573.0588484 1279.30768287 C573.06701203 1283.06948248 573.06575463 1286.83116322 573.05736198 1290.59296125 C573.05528684 1292.56469493 573.06292335 1294.5364318 573.07109898 1296.50814962 C573.02642137 1308.49244593 572.05765373 1320.70505751 568.68408203 1332.25595093 C568.47162842 1332.99369751 568.2591748 1333.73144409 568.0402832 1334.49154663 C558.61201143 1365.74605261 537.46731255 1392.77542858 508.68701172 1408.38143921 C508.06729492 1408.71127808 507.44757812 1409.04111694 506.80908203 1409.38095093 C506.20483398 1409.70434448 505.60058594 1410.02773804 504.97802734 1410.3609314 C484.83159898 1420.93212285 463.70135626 1423.69079335 441.22016907 1423.64164734 C439.25012177 1423.64467201 437.28007566 1423.64856307 435.31003159 1423.65323991 C429.9241815 1423.66348808 424.53839821 1423.6613462 419.15254271 1423.65705931 C413.33300606 1423.65458627 407.51348526 1423.66361347 401.69395447 1423.6710968 C390.30299086 1423.6838302 378.91205084 1423.68563915 367.52108131 1423.68329654 C358.25857554 1423.68151154 348.99607692 1423.68326692 339.73357201 1423.68752098 C338.41390771 1423.68811617 337.09424342 1423.68871136 335.7345893 1423.68932458 C333.72562597 1423.69023189 331.71666264 1423.69114056 329.70769931 1423.69205694 C311.03966936 1423.70048121 292.371642 1423.70482585 273.70361042 1423.70065022 C273.00051536 1423.70049384 272.29742029 1423.70033746 271.57301932 1423.70017635 C268.00985282 1423.69937062 264.44668634 1423.69852485 260.88351987 1423.69766305 C260.17592668 1423.69749196 259.46833348 1423.69732087 258.73929808 1423.6971446 C257.30837378 1423.69679794 255.87744948 1423.69644941 254.44652519 1423.69609901 C232.189839 1423.69074386 209.93319246 1423.69866852 187.67651367 1423.71713257 C162.64157501 1423.73787738 137.60666089 1423.74857048 112.57171315 1423.74455708 C109.8990324 1423.74416177 107.22635164 1423.74380022 104.55367088 1423.7434597 C103.23879383 1423.74329186 101.92391678 1423.74312402 100.56919498 1423.7429511 C91.32562922 1423.74251409 82.08208572 1423.74939019 72.83852577 1423.75927162 C61.5620897 1423.77120455 50.28571196 1423.77256892 39.00927506 1423.76048145 C33.26123553 1423.75460596 27.51330257 1423.75345648 21.76527023 1423.76548386 C16.49292415 1423.77638722 11.22077306 1423.77318661 5.94843592 1423.75922217 C4.05147785 1423.75658744 2.15450428 1423.75890282 0.25756148 1423.76695804 C-14.74247345 1423.82618158 -29.84709038 1422.8348898 -44.12841797 1417.81845093 C-44.8523877 1417.56942017 -45.57635742 1417.3203894 -46.32226562 1417.06381226 C-77.29193373 1405.8723948 -102.98900994 1383.0369278 -117.16748047 1353.32626343 C-126.85784315 1332.24915576 -129.65833364 1311.42649839 -129.56844139 1288.43335724 C-129.57157822 1286.37897384 -129.57602745 1284.32459211 -129.58165449 1282.27021402 C-129.59326887 1276.65454529 -129.5863827 1271.03903261 -129.57632063 1265.4233666 C-129.56868007 1259.30262467 -129.57850231 1253.18190585 -129.58605063 1247.06116724 C-129.59686749 1236.34347271 -129.59666988 1225.62582924 -129.58890915 1214.90813637 C-129.58063801 1203.41533401 -129.57892828 1191.92255823 -129.58512115 1180.42975426 C-129.58550867 1179.70223893 -129.58589619 1178.9747236 -129.58629545 1178.22516236 C-129.58789537 1175.26181464 -129.58954151 1172.29846695 -129.59124628 1169.33511929 C-129.60709207 1141.77130512 -129.60820022 1114.20750876 -129.59980392 1086.64369202 C-129.59955554 1085.82787913 -129.59930715 1085.01206624 -129.59905124 1084.17153175 C-129.59880245 1083.3544051 -129.59855366 1082.53727845 -129.59829733 1081.69539039 C-129.59072261 1056.78379713 -129.58877601 1031.87221123 -129.59236526 1006.96061707 C-129.5925977 1005.29130295 -129.59282917 1003.62198883 -129.59305967 1001.95267471 C-129.59399111 995.24410122 -129.59494711 988.53552773 -129.59593897 981.82695425 C-129.59868976 963.0746514 -129.60040173 944.32234851 -129.60129738 925.57004547 C-129.60133832 924.71616721 -129.60137925 923.86228894 -129.60142143 922.98253558 C-129.60264895 895.78133231 -129.59927023 868.5801316 -129.59274864 841.37892914 C-129.59253789 840.49690767 -129.59232715 839.6148862 -129.59211001 838.70613681 C-129.58867532 824.38340687 -129.58501686 810.060677 -129.58133949 795.73794713 C-129.5667709 738.93518478 -129.56744711 682.13244365 -129.58203125 625.3296814 C-129.58569493 611.01411186 -129.58932813 596.69854232 -129.59274864 582.38297272 C-129.59295999 581.50146628 -129.59317133 580.61995985 -129.59338908 579.7117411 C-129.5998593 552.53844586 -129.60260014 525.36515238 -129.60129738 498.19185638 C-129.60125663 497.33860811 -129.60121587 496.48535983 -129.60117388 495.60625554 C-129.60023638 476.87465585 -129.59833532 458.14305634 -129.59556587 439.41145684 C-129.59457848 432.70894321 -129.59363923 426.00642957 -129.59271374 419.30391594 C-129.59248157 417.63656224 -129.59224538 415.96920855 -129.59200515 414.30185486 C-129.58842688 389.3980235 -129.59146882 364.49420043 -129.59905124 339.59037011 C-129.59929963 338.77455722 -129.59954801 337.95874433 -129.59980392 337.11820984 C-129.60005197 336.30390726 -129.60030002 335.48960467 -129.60055558 334.65062626 C-129.60883649 307.16501799 -129.60577374 279.67943106 -129.58996169 252.19382584 C-129.58830469 249.23993312 -129.58669457 246.28604037 -129.58512115 243.3321476 C-129.58473053 242.60723052 -129.58433991 241.88231344 -129.58393746 241.13542918 C-129.57802959 229.67559961 -129.58213006 218.21579667 -129.59042817 206.7559695 C-129.59838098 195.4767087 -129.59529591 184.19749226 -129.58138591 172.91823348 C-129.57425347 166.88940455 -129.5718015 160.8606761 -129.58260386 154.83185035 C-129.59234472 149.33936864 -129.58810601 143.8470759 -129.57306188 138.35460777 C-129.57005865 136.38772282 -129.57199016 134.42082196 -129.57967969 132.45394974 C-129.7136137 95.55560217 -118.93374896 63.34497884 -93.19091797 36.38095093 C-92.66626953 35.79313843 -92.14162109 35.20532593 -91.60107422 34.59970093 C-79.29902431 21.32726031 -62.0957791 11.80576389 -45.12841797 6.00595093 C-44.46994873 5.77931763 -43.81147949 5.55268433 -43.13305664 5.31918335 C-28.82662591 0.76612538 -14.87289024 -0.05666697 0 0 Z M-64.19091797 58.38095093 C-65.5425 59.5952478 -65.5425 59.5952478 -66.92138672 60.83407593 C-79.69928753 72.88936442 -88.53277009 88.45702502 -93.19091797 105.38095093 C-93.36113591 105.9765634 -93.53135386 106.57217587 -93.70672993 107.1858372 C-95.94995381 116.40587613 -95.46948857 125.86986715 -95.44818687 135.29196358 C-95.45088135 137.34358602 -95.4544498 139.39520747 -95.45881134 141.44682705 C-95.46827188 147.09673861 -95.46526784 152.74658571 -95.4602558 158.39650043 C-95.4569913 164.53870509 -95.46526994 170.6808959 -95.47207415 176.82309616 C-95.4823876 187.59233515 -95.48528512 198.36155045 -95.48316193 209.13079262 C-95.48091259 220.68542149 -95.48298269 232.24003748 -95.49030685 243.79466438 C-95.49076616 244.52466268 -95.49122547 245.25466099 -95.49169869 246.00678045 C-95.49358198 248.97999693 -95.49549336 251.95321339 -95.49744107 254.92642983 C-95.51772777 285.93988245 -95.52385297 316.95332784 -95.52502529 347.96678634 C-95.52515479 351.30484658 -95.52529067 354.64290681 -95.52543211 357.98096704 C-95.52546612 358.80931762 -95.52550013 359.63766819 -95.52553517 360.49112029 C-95.52635214 378.8485945 -95.53073216 397.20606733 -95.5357438 415.56354081 C-95.53780052 423.12290178 -95.53978058 430.68226277 -95.5417763 438.24162376 C-95.54199748 439.07687326 -95.54221866 439.91212277 -95.54244654 440.77268287 C-95.55509465 488.63639912 -95.56334477 536.50011447 -95.56242943 584.36383247 C-95.56239787 586.15503025 -95.5623664 587.94622802 -95.56233501 589.7374258 C-95.56218824 597.82450894 -95.56201191 605.91159209 -95.56182724 613.99867523 C-95.561745 617.60489981 -95.5616647 621.21112438 -95.56158462 624.81734895 C-95.56154383 626.62232929 -95.56150179 628.42730962 -95.5614585 630.23228995 C-95.56009803 687.30659378 -95.57473218 744.3808728 -95.60253906 801.45516968 C-95.60954113 815.83491572 -95.61648007 830.21466179 -95.62306786 844.59440804 C-95.6234736 845.47983256 -95.62387935 846.36525708 -95.6242974 847.27751265 C-95.63672801 874.56859318 -95.64425864 901.85967168 -95.64678383 929.15075493 C-95.64686373 930.00763162 -95.64694363 930.86450832 -95.64702595 931.74735097 C-95.64873254 950.5582084 -95.64925489 969.3690657 -95.6486852 988.17992319 C-95.64849223 994.91086496 -95.64838815 1001.64180673 -95.64832774 1008.37274851 C-95.64831191 1010.0472279 -95.64829151 1011.7217073 -95.6482665 1013.39618669 C-95.64791391 1040.07256009 -95.65930726 1066.74891225 -95.67657413 1093.42527956 C-95.69387782 1120.29513357 -95.69825323 1147.16495817 -95.68505148 1174.03481541 C-95.68322694 1177.74948726 -95.68154037 1181.46415915 -95.67993546 1185.1788311 C-95.67961528 1185.90699245 -95.67929511 1186.63515381 -95.67896523 1187.38538066 C-95.67426309 1198.90531077 -95.68296541 1210.42518993 -95.69727783 1221.94511047 C-95.71107718 1233.27861152 -95.71021654 1244.61201806 -95.69489356 1255.94552452 C-95.68711038 1262.0056716 -95.68563705 1268.06563819 -95.70180826 1274.12577273 C-95.71640267 1279.64329155 -95.71245018 1285.16048017 -95.69396053 1290.67798448 C-95.69052929 1292.65730212 -95.69373737 1294.63664585 -95.70456294 1296.61593686 C-95.84370254 1323.89107764 -87.31285409 1347.72055274 -68.09716797 1367.56454468 C-52.48362007 1383.04693038 -30.22380823 1393.55301602 -8.08276844 1393.51796532 C-6.85897698 1393.52194306 -6.85897698 1393.52194306 -5.61046246 1393.52600116 C-2.86503732 1393.53368641 -0.11965697 1393.53425304 2.6257782 1393.53485107 C4.60954446 1393.53886623 6.5933099 1393.54330454 8.57707435 1393.54813063 C14.03798611 1393.5600965 19.49888903 1393.56574464 24.95981133 1393.57031178 C30.84629084 1393.57626799 36.73275979 1393.58787796 42.61923218 1393.59860229 C56.84205192 1393.62312844 71.06487644 1393.63775517 85.28771064 1393.65066236 C89.30579567 1393.65433377 93.32388032 1393.65833663 97.34196496 1393.66241503 C122.29905965 1393.68768124 147.25615503 1393.70972218 172.2132597 1393.72214317 C177.99463084 1393.72506435 183.77600195 1393.7280319 189.55737305 1393.73104858 C190.63473444 1393.73160495 190.63473444 1393.73160495 191.7338607 1393.73217255 C215.00104051 1393.74431777 238.2681445 1393.77524483 261.53528872 1393.81697011 C285.46939561 1393.85981291 309.40346248 1393.88639131 333.33760874 1393.89161789 C336.72243086 1393.89235826 340.10725292 1393.89326894 343.49207497 1393.89427567 C344.15819053 1393.89446628 344.8243061 1393.89465689 345.51060699 1393.89485329 C355.54349043 1393.89814192 365.5762845 1393.91549499 375.60913658 1393.94016647 C387.03400595 1393.968215 398.45873126 1393.97914525 409.88363238 1393.96797101 C415.7086537 1393.96279646 421.53337355 1393.96559311 427.35835075 1393.99043655 C432.70143298 1394.01303349 438.04399899 1394.01210824 443.3870909 1393.99323268 C445.30986715 1393.99044725 447.23267921 1393.99594909 449.15539821 1394.01104562 C464.62180749 1394.12495963 479.50802213 1392.03415456 493.30908203 1384.50595093 C493.96013916 1384.1649939 494.61119629 1383.82403687 495.28198242 1383.4727478 C500.77489295 1380.5352022 505.9184248 1377.24698103 510.80908203 1373.38095093 C511.54126953 1372.81247437 512.27345703 1372.2439978 513.02783203 1371.65829468 C530.76236759 1356.95236818 541.70049839 1335.0547159 544.80908203 1312.38095093 C544.90049085 1309.57409537 544.94529114 1306.79281125 544.9378832 1303.9865343 C544.93965821 1303.15044263 544.94143322 1302.31435096 544.94326202 1301.45292317 C544.94800921 1298.63919089 544.94562725 1295.82550971 544.94330311 1293.01177502 C544.9452559 1290.97023431 544.94764469 1288.92869399 544.95043108 1286.88715425 C544.9568433 1281.24659414 544.95699173 1275.60604824 544.95615367 1269.96548518 C544.95632293 1263.8403417 544.96222636 1257.71520336 544.96739453 1251.59006244 C544.97564354 1240.84454606 544.98014617 1230.0990346 544.98212051 1219.35351562 C544.98424869 1207.82139719 544.98850782 1196.28928254 544.99536324 1184.75716591 C544.99600916 1183.66523606 544.99600916 1183.66523606 544.99666813 1182.55124703 C544.99842647 1179.58646197 545.00019611 1176.62167691 545.00198115 1173.65689187 C545.02358261 1137.70866128 545.03446026 1101.76042995 545.04345738 1065.81219436 C545.04639127 1054.15481913 545.04976115 1042.49744408 545.0534246 1030.84006906 C545.05368289 1030.01769372 545.05394118 1029.19531838 545.0542073 1028.34802257 C545.05525352 1025.02097523 545.05630195 1021.69392789 545.05735312 1018.36688055 C545.07531837 961.45489797 545.09069723 904.54291511 545.09811215 847.6309301 C545.09869612 843.1603559 545.09929339 838.68978171 545.09988977 834.21920751 C545.10006695 832.88897801 545.10006695 832.88897801 545.10024771 831.53187518 C545.10144509 822.54715183 545.10265385 813.56242849 545.10388024 804.57770514 C545.10412547 802.77624233 545.10436933 800.97477953 545.10461181 799.17331672 C545.11240078 741.32247023 545.1347822 683.47164404 545.16728823 625.62080642 C545.19063591 584.05504765 545.21218661 542.48929292 545.21929455 500.92352772 C545.21944157 500.06858388 545.21958859 499.21364005 545.21974007 498.33278882 C545.222925 479.56388055 545.22497582 460.79497232 545.22596761 442.02606381 C545.22638235 434.47401357 545.22693725 426.92196333 545.22752953 419.3699131 C545.22759019 418.54339294 545.22765086 417.71687277 545.22771337 416.86530655 C545.22972883 390.24839588 545.2439634 363.63150918 545.26447453 337.01460688 C545.28506418 310.20069121 545.29294506 283.38680324 545.28339676 256.57288046 C545.28207836 252.86530288 545.2809003 249.15772528 545.27980614 245.45014763 C545.27947636 244.35999367 545.27947636 244.35999367 545.27913993 243.24781641 C545.27602894 231.75273411 545.28633914 220.25770486 545.30228169 208.76263486 C545.31768924 197.45171706 545.31843093 186.14089184 545.30473345 174.82996447 C545.2978228 168.78253122 545.29721545 162.7352801 545.31429354 156.68786296 C545.32971927 151.1806642 545.32655283 145.67379362 545.30888326 140.16660446 C545.30574687 138.1921329 545.30923774 136.21763609 545.32037501 134.24319345 C545.47333194 105.22417406 536.29972872 81.14003403 515.80908203 60.38095093 C498.97374136 43.51317222 474.79792907 35.2081692 451.29001236 35.14883614 C449.18690826 35.15448525 447.08400733 35.16985252 444.98095703 35.18563843 C443.49595329 35.18937888 442.01094705 35.19222096 440.52593994 35.19421387 C436.65937213 35.20176921 432.79295991 35.22134574 428.92645264 35.24362183 C424.96417341 35.2642571 421.0018685 35.27325299 417.03955078 35.28329468 C409.29599106 35.30460121 401.55255853 35.33863632 393.80908203 35.38095093 C393.95037537 36.06430511 394.0916687 36.7476593 394.23724365 37.45172119 C394.51208588 38.79896774 394.51208588 38.79896774 394.79248047 40.1734314 C394.9750238 41.06303558 395.15756714 41.95263977 395.34564209 42.86920166 C397.85869606 56.48943785 393.56293518 67.81670033 386.80908203 79.38095093 C379.99409438 88.57958449 369.72033521 93.07379639 358.80908203 95.38095093 C354.9376147 95.77059259 351.10519016 95.79566058 347.21635437 95.77536011 C346.10202382 95.78145121 344.98769328 95.78754231 343.83959514 95.793818 C340.13359886 95.81036717 336.42794921 95.80568363 332.72192383 95.8008728 C330.05338376 95.80821782 327.38486897 95.81671353 324.71633911 95.82653809 C318.23671398 95.84751815 311.75717846 95.85213723 305.27752336 95.8503502 C300.00663251 95.84903884 294.73576944 95.85286571 289.4648838 95.86027527 C287.94242138 95.86237463 286.41995895 95.86447223 284.89749652 95.86656809 C283.76058059 95.86813338 283.76058059 95.86813338 282.60069666 95.86973029 C268.28912701 95.88860265 253.97760869 95.88759168 239.66603176 95.88076097 C226.59755858 95.87518746 213.52928155 95.89600804 200.4608542 95.92912143 C187.01553396 95.96292322 173.57030752 95.97801873 160.12494403 95.97340441 C152.58708073 95.9711663 145.0493987 95.97630603 137.51157188 96.001297 C131.09399269 96.0223942 124.67669419 96.0258193 118.25910314 96.00699741 C114.99032122 95.9978909 111.72216529 95.99929198 108.45340538 96.01735306 C76.23091712 96.18304153 76.23091712 96.18304153 63.80908203 84.38095093 C62.77847656 83.41028687 62.77847656 83.41028687 61.72705078 82.42001343 C54.00056217 74.47850194 49.68883472 64.3882427 49.62158203 53.31845093 C49.60740234 52.27559937 49.59322266 51.2327478 49.57861328 50.15829468 C49.77879821 46.87729759 50.22007536 43.86759271 50.82348633 40.64486694 C51.0988044 39.16458763 51.0988044 39.16458763 51.37968445 37.65440369 C51.52138565 36.90416428 51.66308685 36.15392487 51.80908203 35.38095093 C43.80216564 35.33432163 35.79530733 35.29892799 27.78828812 35.27732658 C24.06909592 35.26695167 20.34999758 35.25290965 16.63085938 35.23007202 C13.03225551 35.20811638 9.43374112 35.19633518 5.83507538 35.19119644 C3.81468247 35.18577913 1.79432485 35.17020388 -0.22601318 35.15435791 C-23.89332903 35.15152133 -46.57200966 42.15378832 -64.19091797 58.38095093 Z " fill="#3E3C55" transform="translate(349.19091796875,-0.380950927734375)"/>
<path d="M0 0 C2.1389592 1.5868378 4.13904555 2.52738073 6.60546875 3.515625 C15.91798545 7.3090103 22.15049003 14.97561504 26.08435059 23.98892212 C27.63253056 28.06957795 28.38517993 32.20572377 29.12109375 36.49609375 C29.29373245 37.44718521 29.46637115 38.39827667 29.64424133 39.37818909 C30.20507742 42.48460316 30.7493444 45.59365677 31.29296875 48.703125 C31.68005749 50.87092031 32.06800936 53.03856165 32.45678711 55.20605469 C33.46384644 60.83909627 34.455893 66.47467821 35.4442749 72.11102295 C36.23156603 76.58812423 37.02884977 81.06342153 37.82601929 85.53877258 C38.57857287 89.76956604 39.32606121 94.00123885 40.07141113 98.23330688 C40.42608643 100.24711269 40.78162988 102.26076579 41.13806152 104.27426147 C41.63303665 107.07790364 42.1221463 109.88250261 42.609375 112.6875 C42.75578934 113.51238419 42.90220367 114.33726837 43.05305481 115.18714905 C43.71077514 119.01065391 44.22222364 122.61793002 44.04296875 126.515625 C42.62695161 126.99670775 41.21012438 127.47540641 39.79296875 127.953125 C39.0040625 128.21996094 38.21515625 128.48679687 37.40234375 128.76171875 C35.29386101 129.43545578 33.19189195 129.99028861 31.04296875 130.515625 C31.6514331 150.83603397 32.41204009 171.14459515 33.32300568 191.45388293 C33.45293878 194.3550297 33.58173303 197.25622668 33.71058464 200.15742165 C34.01425848 206.99361864 34.31995078 213.82972322 34.62695312 220.66577148 C34.94195147 227.68081354 35.25309955 234.69601946 35.56251335 241.71130985 C35.83115394 247.79873747 36.10227674 253.88605119 36.37535286 259.97328144 C36.53723091 263.58247655 36.69816929 267.19170703 36.85662842 270.801054 C37.03232153 274.80039804 37.2131886 278.79949213 37.39453125 282.79858398 C37.44546936 283.97411835 37.49640747 285.14965271 37.54888916 286.36080933 C37.56103847 297.64867098 37.56103847 297.64867098 41.54296875 307.828125 C45.67491193 313.74977613 45.78396323 319.44171258 45.04296875 326.515625 C42.45231534 335.19552451 37.24084719 339.65679186 29.54296875 343.890625 C26.00532311 344.77503641 22.68902027 344.55267837 19.04296875 344.515625 C19.14319336 345.19810303 19.24341797 345.88058105 19.34667969 346.58374023 C32.28689915 436.43903963 31.53013062 528.83287717 26.04296875 634.515625 C25.05296875 634.515625 24.06296875 634.515625 23.04296875 634.515625 C23.04296875 642.435625 23.04296875 650.355625 23.04296875 658.515625 C25.02296875 658.515625 27.00296875 658.515625 29.04296875 658.515625 C29.04296875 668.745625 29.04296875 678.975625 29.04296875 689.515625 C130.02296875 689.515625 231.00296875 689.515625 335.04296875 689.515625 C335.37296875 691.165625 335.70296875 692.815625 336.04296875 694.515625 C57.19296875 694.515625 -221.65703125 694.515625 -508.95703125 694.515625 C-508.46203125 692.040625 -508.46203125 692.040625 -507.95703125 689.515625 C-403.34703125 689.515625 -298.73703125 689.515625 -190.95703125 689.515625 C-190.62703125 686.545625 -190.29703125 683.575625 -189.95703125 680.515625 C-187.28692108 672.98660191 -181.51476518 666.10933543 -174.58203125 662.1640625 C-169.08797435 659.65197727 -164.3809057 658.38571077 -158.31640625 658.41796875 C-157.24648437 658.42119141 -156.1765625 658.42441406 -155.07421875 658.42773438 C-153.96304687 658.43611328 -152.851875 658.44449219 -151.70703125 658.453125 C-150.01707031 658.45989258 -150.01707031 658.45989258 -148.29296875 658.46679688 C-145.51426908 658.47857103 -142.73567716 658.4950166 -139.95703125 658.515625 C-140.09415527 657.89381348 -140.2312793 657.27200195 -140.37255859 656.63134766 C-141.55815756 651.03026821 -142.3217556 645.60584439 -142.58203125 639.890625 C-142.62070313 639.17261719 -142.659375 638.45460938 -142.69921875 637.71484375 C-142.79163153 635.98210405 -142.87531348 634.24890201 -142.95703125 632.515625 C-144.41109375 632.5465625 -144.41109375 632.5465625 -145.89453125 632.578125 C-148.95703125 632.515625 -148.95703125 632.515625 -149.95703125 631.515625 C-150.15206437 630.1895961 -150.285103 628.85436283 -150.39204407 627.51834106 C-150.46335793 626.65472017 -150.53467178 625.79109928 -150.60814667 624.90130806 C-150.71957378 623.46540227 -150.71957378 623.46540227 -150.83325195 622.00048828 C-150.91482292 620.99478224 -150.99639389 619.98907619 -151.08043671 618.95289421 C-151.35255082 615.580931 -151.61783 612.20846813 -151.8828125 608.8359375 C-152.07223346 606.46254507 -152.26190995 604.08917302 -152.451828 601.71582031 C-152.95995732 595.34337499 -153.46104282 588.97039533 -153.95974731 582.59720612 C-154.2684798 578.65405423 -154.57869047 574.71102082 -154.88916016 570.76800537 C-157.30236715 540.073247 -159.65952237 509.37836138 -161.45703125 478.640625 C-161.53257233 477.35963928 -161.6081134 476.07865356 -161.6859436 474.7588501 C-163.26439306 447.64033137 -164.1664849 420.55615865 -164.14453125 393.390625 C-164.14412338 391.46937302 -164.14412338 391.46937302 -164.14370728 389.50930786 C-164.11071973 355.56723054 -162.67568443 321.85153319 -156.31494141 288.4230957 C-155.48605482 284.00030532 -154.84201394 279.65321874 -154.51171875 275.1640625 C-154.10477157 269.70818182 -153.44731344 264.31125941 -152.72265625 258.890625 C-152.60381073 257.99890091 -152.48496521 257.10717682 -152.36251831 256.18843079 C-152.10938372 254.29087339 -151.85609295 252.39333682 -151.60266113 250.49581909 C-147.266069 217.82921123 -143.89809423 185.01925853 -141.64453125 152.140625 C-141.5681543 151.02679443 -141.49177734 149.91296387 -141.41308594 148.76538086 C-140.93443897 141.01142027 -140.88534136 133.28275336 -140.95703125 125.515625 C-141.64140259 127.11772827 -141.64140259 127.11772827 -142.33959961 128.75219727 C-152.47316569 152.46746186 -162.69069588 176.14384264 -173.01573181 199.77633667 C-177.30090857 209.58737768 -181.55378291 219.41235363 -185.8046875 229.23828125 C-187.74974863 233.73327383 -189.70067957 238.22561409 -191.65847778 242.71507263 C-192.86469306 245.48144242 -194.06905584 248.24861703 -195.27331543 251.01583862 C-195.84653583 252.33160714 -196.42064888 253.64698719 -196.99572754 254.96194458 C-197.79113994 256.78090795 -198.58313776 258.60136331 -199.375 260.421875 C-200.05212036 261.97358398 -200.05212036 261.97358398 -200.74291992 263.55664062 C-203.54108041 270.22056942 -203.54108041 270.22056942 -203.39453125 277.265625 C-202.60732854 283.64964699 -203.79310261 289.096487 -207.25 294.55859375 C-211.82524896 300.31138668 -217.59912026 303.87976397 -224.96484375 304.75390625 C-232.11659813 305.00461351 -238.49227446 303.45384277 -244.0390625 298.75 C-249.15883532 293.2745377 -251.97209065 287.65214687 -252.39453125 280.140625 C-252.12270764 273.83431728 -250.28973169 268.05577903 -245.98046875 263.36328125 C-243.43622859 261.10122045 -241.00932575 259.04177225 -237.95703125 257.515625 C-237.02065383 255.5624641 -237.02065383 255.5624641 -236.21142578 253.13427734 C-235.87493515 252.18857376 -235.53844452 251.24287018 -235.1917572 250.26850891 C-234.82812576 249.2234166 -234.46449432 248.17832428 -234.08984375 247.1015625 C-233.50989403 245.46377083 -233.50989403 245.46377083 -232.91822815 243.79289246 C-232.07652384 241.41381658 -231.23807196 239.03358815 -230.4024353 236.65237427 C-229.07021091 232.85694959 -227.72996195 229.0644673 -226.38598633 225.27319336 C-226.1591985 224.63343284 -225.93241068 223.99367231 -225.6987505 223.33452511 C-225.23603478 222.02938851 -224.7732688 220.72426973 -224.31045341 219.41916847 C-223.60349531 217.42481947 -222.89740076 215.43016627 -222.19142151 213.43547058 C-217.41781985 199.95563175 -212.54161319 186.51355895 -207.64453125 173.078125 C-207.23225281 171.94613678 -206.81997437 170.81414856 -206.39520264 169.64785767 C-198.60598211 148.26187275 -190.78967303 126.88574282 -182.95703125 105.515625 C-186.39798244 104.3576522 -189.80206837 103.242685 -193.33203125 102.390625 C-194.52828125 102.101875 -195.72453125 101.813125 -196.95703125 101.515625 C-196.26180964 96.45300199 -194.19792831 92.03304368 -192.1953125 87.37890625 C-191.81264725 86.47853638 -191.42998199 85.5781665 -191.03572083 84.6505127 C-189.78442165 81.70795344 -188.52692638 78.76808384 -187.26953125 75.828125 C-185.53122731 71.74590625 -183.79649383 67.66217615 -182.0625 63.578125 C-181.62832764 62.5564473 -181.19415527 61.53476959 -180.74682617 60.48213196 C-178.0446589 54.11323152 -175.37898847 47.73077455 -172.7578125 41.328125 C-172.28094749 40.16351997 -172.28094749 40.16351997 -171.79444885 38.97538757 C-170.32722901 35.38687736 -168.86638039 31.79587151 -167.41137695 28.20239258 C-157.30615338 3.340129 -157.30615338 3.340129 -145.8359375 -1.9140625 C-143.72688688 -2.71396156 -141.60246531 -3.47522121 -139.4609375 -4.18359375 C-136.56187361 -5.25983486 -134.01308874 -6.44994999 -131.28125 -7.87109375 C-125.75825283 -10.68479408 -120.09259856 -12.69232122 -114.20703125 -14.609375 C-112.62921875 -15.12866577 -112.62921875 -15.12866577 -111.01953125 -15.65844727 C-73.96243917 -27.63525835 -31.0028151 -25.82598481 0 0 Z M-73.95703125 369.515625 C-75.42261752 376.40423771 -76.54868747 383.28154604 -77.4503479 390.26487732 C-77.65504702 391.81810144 -77.65504702 391.81810144 -77.86388147 393.40270382 C-78.31693251 396.84674998 -78.76516036 400.29140584 -79.21337891 403.73608398 C-79.53850726 406.21545597 -79.86392889 408.69478952 -80.18962097 411.17408752 C-80.97934984 417.19192791 -81.76593694 423.21017123 -82.55102898 429.22861766 C-83.46566776 436.23916466 -84.38383593 443.24924806 -85.30212073 450.25931824 C-86.93990227 462.76292542 -88.57437822 475.26696247 -90.20703125 487.77124023 C-91.79135679 499.90536897 -93.37820559 512.0391643 -94.96777344 524.17260742 C-96.97644138 539.50515598 -98.98290481 554.83799141 -100.98752529 570.17106966 C-101.62663522 575.05903186 -102.26653475 579.94689032 -102.90669632 584.83471489 C-103.76715093 591.40492015 -104.62547734 597.97540113 -105.48237038 604.54607201 C-105.79776109 606.96213161 -106.11381253 609.37810506 -106.43055916 611.79398727 C-106.86138528 615.08084756 -107.28984859 618.3680072 -107.71768188 621.65525818 C-107.84471894 622.62021743 -107.97175599 623.58517668 -108.10264266 624.57937711 C-108.21636131 625.45699896 -108.33007997 626.3346208 -108.44724464 627.23883724 C-108.54640667 627.99779354 -108.64556869 628.75674984 -108.74773562 629.53870481 C-109.00967183 631.68151819 -109.00967183 631.68151819 -108.95703125 634.515625 C-109.61703125 634.515625 -110.27703125 634.515625 -110.95703125 634.515625 C-110.95703125 642.435625 -110.95703125 650.355625 -110.95703125 658.515625 C-109.30703125 658.515625 -107.65703125 658.515625 -105.95703125 658.515625 C-105.95703125 668.745625 -105.95703125 678.975625 -105.95703125 689.515625 C-89.78703125 689.515625 -73.61703125 689.515625 -56.95703125 689.515625 C-55.63703125 685.555625 -54.31703125 681.595625 -52.95703125 677.515625 C-47.73311206 668.25504098 -42.05458842 663.07029422 -31.796875 660.13574219 C-26.83987689 659.05331653 -21.88996767 658.94073809 -16.83203125 658.828125 C-15.78015625 658.79396484 -14.72828125 658.75980469 -13.64453125 658.72460938 C-11.08213812 658.64307868 -8.52004628 658.57362772 -5.95703125 658.515625 C-6.50240841 649.07198893 -7.4941151 639.86124468 -8.95703125 630.515625 C-9.61703125 630.515625 -10.27703125 630.515625 -10.95703125 630.515625 C-11.07642563 629.22912552 -11.19582001 627.94262604 -11.3188324 626.61714172 C-11.88072808 621.59332337 -12.94871242 616.79130485 -14.16821289 611.89135742 C-14.39364997 610.96595846 -14.61908705 610.0405595 -14.85135555 609.08711815 C-15.60138434 606.01379977 -16.35933728 602.94249193 -17.1171875 599.87109375 C-17.65614176 597.66842193 -18.19453955 595.46561388 -18.73242188 593.26268005 C-19.88578183 588.54303635 -21.04242512 583.82421465 -22.20169067 579.10601807 C-24.97320092 567.82472058 -27.72757181 556.53923325 -30.48321342 545.25405121 C-31.11396972 542.67130179 -31.74488591 540.08859219 -32.3761158 537.50595856 C-39.74284354 507.3647894 -46.98210345 477.19339785 -54.20273113 447.01695156 C-55.36133381 442.17527187 -56.52038611 437.33369993 -57.6796875 432.4921875 C-57.8997452 431.57298082 -58.11980289 430.65377415 -58.34652901 429.70671272 C-63.1549454 409.62795731 -68.04589928 389.56947262 -72.95703125 369.515625 C-73.28703125 369.515625 -73.61703125 369.515625 -73.95703125 369.515625 Z " fill="#6C63FE" transform="translate(1551.95703125,793.484375)"/>
<path d="M0 0 C21.56421548 91.14357196 25.86169361 182.86892309 22 366 C21.01 366 20.02 366 19 366 C19 373.92 19 381.84 19 390 C20.98 390 22.96 390 25 390 C25 400.23 25 410.46 25 421 C125.98 421 226.96 421 331 421 C331.33 422.65 331.66 424.3 332 426 C53.15 426 -225.7 426 -513 426 C-512.67 424.35 -512.34 422.7 -512 421 C-407.39 421 -302.78 421 -195 421 C-194.67 418.03 -194.34 415.06 -194 412 C-191.32988983 404.47097691 -185.55773393 397.59371043 -178.625 393.6484375 C-173.1309431 391.13635227 -168.42387445 389.87008577 -162.359375 389.90234375 C-160.75449219 389.90717773 -160.75449219 389.90717773 -159.1171875 389.91210938 C-158.00601562 389.92048828 -156.89484375 389.92886719 -155.75 389.9375 C-154.06003906 389.94426758 -154.06003906 389.94426758 -152.3359375 389.95117188 C-149.55723783 389.96294603 -146.77864591 389.9793916 -144 390 C-144.13712402 389.37818848 -144.27424805 388.75637695 -144.41552734 388.11572266 C-145.60112631 382.51464321 -146.36472435 377.09021939 -146.625 371.375 C-146.66367188 370.65699219 -146.70234375 369.93898438 -146.7421875 369.19921875 C-146.83460028 367.46647905 -146.91828223 365.73327701 -147 364 C-148.4540625 364.0309375 -148.4540625 364.0309375 -149.9375 364.0625 C-153 364 -153 364 -154 363 C-154.19503312 361.6739711 -154.32807175 360.33873783 -154.43501282 359.00271606 C-154.50632668 358.13909517 -154.57764053 357.27547428 -154.65111542 356.38568306 C-154.76254253 354.94977727 -154.76254253 354.94977727 -154.8762207 353.48486328 C-154.99857716 351.97630422 -154.99857716 351.97630422 -155.12340546 350.43726921 C-155.39551957 347.065306 -155.66079875 343.69284313 -155.92578125 340.3203125 C-156.11520221 337.94692007 -156.3048787 335.57354802 -156.49479675 333.20019531 C-157.00292607 326.82774999 -157.50401157 320.45477033 -158.00271606 314.08158112 C-158.31144855 310.13842923 -158.62165922 306.19539582 -158.93212891 302.25238037 C-161.3453359 271.557622 -163.70249112 240.86273638 -165.5 210.125 C-165.57554108 208.84401428 -165.65108215 207.56302856 -165.72891235 206.2432251 C-167.30736181 179.12470637 -168.20945365 152.04053365 -168.1875 124.875 C-168.18709213 122.95374802 -168.18709213 122.95374802 -168.18667603 120.99368286 C-168.15454774 87.93573099 -166.69727231 55.18507596 -160.9375 22.5625 C-160.77523926 21.63791992 -160.61297852 20.71333984 -160.44580078 19.76074219 C-160.28708496 18.91286133 -160.12836914 18.06498047 -159.96484375 17.19140625 C-159.75782837 16.08067749 -159.75782837 16.08067749 -159.54663086 14.94750977 C-159 13 -159 13 -157 10 C-155.11509705 9.50756836 -155.11509705 9.50756836 -152.77709961 9.33984375 C-151.89243515 9.2695546 -151.00777069 9.19926544 -150.09629822 9.12684631 C-148.63904076 9.03311989 -148.63904076 9.03311989 -147.15234375 8.9375 C-146.13423111 8.86111801 -145.11611847 8.78473602 -144.06715393 8.70603943 C-140.6914536 8.45674819 -137.31468635 8.22820343 -133.9375 8 C-131.580659 7.83048125 -129.22388866 7.65997734 -126.8671875 7.48852539 C-109.04865197 6.20930512 -91.21776071 5.11969135 -73.38378906 4.08081055 C-60.21978859 3.30660263 -47.09462067 2.28935079 -33.96105957 1.11309814 C-22.60491471 0.10518841 -11.39429145 -0.30302707 0 0 Z M-78 101 C-79.46558627 107.88861271 -80.59165622 114.76592104 -81.49331665 121.74925232 C-81.69801577 123.30247644 -81.69801577 123.30247644 -81.90685022 124.88707882 C-82.35990126 128.33112498 -82.80812911 131.77578084 -83.25634766 135.22045898 C-83.58147601 137.69983097 -83.90689764 140.17916452 -84.23258972 142.65846252 C-85.02231859 148.67630291 -85.80890569 154.69454623 -86.59399773 160.71299266 C-87.50863651 167.72353966 -88.42680468 174.73362306 -89.34508948 181.74369324 C-90.98287102 194.24730042 -92.61734697 206.75133747 -94.25 219.25561523 C-95.83432554 231.38974397 -97.42117434 243.5235393 -99.01074219 255.65698242 C-101.01941013 270.98953098 -103.02587356 286.32236641 -105.03049404 301.65544466 C-105.66960397 306.54340686 -106.3095035 311.43126532 -106.94966507 316.31908989 C-107.81011968 322.88929515 -108.66844609 329.45977613 -109.52533913 336.03044701 C-109.84072984 338.44650661 -110.15678128 340.86248006 -110.47352791 343.27836227 C-110.90435403 346.56522256 -111.33281734 349.8523822 -111.76065063 353.13963318 C-111.88768769 354.10459243 -112.01472474 355.06955168 -112.14561141 356.06375211 C-112.25933006 356.94137396 -112.37304872 357.8189958 -112.49021339 358.72321224 C-112.58937542 359.48216854 -112.68853744 360.24112484 -112.79070437 361.02307981 C-113.05264058 363.16589319 -113.05264058 363.16589319 -113 366 C-113.66 366 -114.32 366 -115 366 C-115 373.92 -115 381.84 -115 390 C-113.35 390 -111.7 390 -110 390 C-110 400.23 -110 410.46 -110 421 C-93.83 421 -77.66 421 -61 421 C-59.68 417.04 -58.36 413.08 -57 409 C-51.77608081 399.73941598 -46.09755717 394.55466922 -35.83984375 391.62011719 C-30.88284564 390.53769153 -25.93293642 390.42511309 -20.875 390.3125 C-19.823125 390.27833984 -18.77125 390.24417969 -17.6875 390.20898438 C-15.12510687 390.12745368 -12.56301503 390.05800272 -10 390 C-10.54537716 380.55636393 -11.53708385 371.34561968 -13 362 C-13.66 362 -14.32 362 -15 362 C-15.11939438 360.71350052 -15.23878876 359.42700104 -15.36180115 358.10151672 C-15.92369683 353.07769837 -16.99168117 348.27567985 -18.21118164 343.37573242 C-18.43661872 342.45033346 -18.6620558 341.5249345 -18.8943243 340.57149315 C-19.64435309 337.49817477 -20.40230603 334.42686693 -21.16015625 331.35546875 C-21.69911051 329.15279693 -22.2375083 326.94998888 -22.77539062 324.74705505 C-23.92875058 320.02741135 -25.08539387 315.30858965 -26.24465942 310.59039307 C-29.01616967 299.30909558 -31.77054056 288.02360825 -34.52618217 276.73842621 C-35.15693847 274.15567679 -35.78785466 271.57296719 -36.41908455 268.99033356 C-43.78581229 238.8491644 -51.0250722 208.67777285 -58.24569988 178.50132656 C-59.40430256 173.65964687 -60.56335486 168.81807493 -61.72265625 163.9765625 C-61.94271395 163.05735582 -62.16277164 162.13814915 -62.38949776 161.19108772 C-67.19791415 141.11233231 -72.08886803 121.05384762 -77 101 C-77.33 101 -77.66 101 -78 101 Z " fill="#2F2E41" transform="translate(1556,1062)"/>
<path d="M0 0 C0.72599639 -0.00350607 1.45199277 -0.00701215 2.19998905 -0.01062447 C4.63968456 -0.01994958 7.07914195 -0.01501232 9.51884747 -0.01015663 C11.28287774 -0.01389233 13.04690636 -0.01849353 14.81093234 -0.02388728 C19.6640832 -0.0361426 24.51716526 -0.03585383 29.37032807 -0.03349853 C34.60221844 -0.033091 39.83408656 -0.04412336 45.06596661 -0.05361366 C55.3183383 -0.07023846 65.570687 -0.07572388 75.82307104 -0.07683842 C84.15526726 -0.07778818 92.48745588 -0.08189488 100.8196497 -0.08823967 C124.43404966 -0.10585603 148.04843144 -0.11507791 171.66283802 -0.11357872 C173.57309597 -0.11345885 173.57309597 -0.11345885 175.521945 -0.11333656 C176.79700213 -0.1132548 178.07205926 -0.11317304 179.38575449 -0.1130888 C200.05354848 -0.11227576 220.72126962 -0.13141688 241.38904253 -0.1596133 C262.60183744 -0.18832531 283.8145968 -0.20215452 305.02741164 -0.20042574 C316.94030691 -0.19976127 328.85312581 -0.20527888 340.76600361 -0.22678185 C350.90840244 -0.24497148 361.05069028 -0.2493592 371.19309834 -0.235763 C376.36875792 -0.2292222 381.54420441 -0.22915631 386.71984386 -0.2464695 C391.45789323 -0.26215601 396.19555978 -0.25938185 400.93359955 -0.24190123 C402.64758009 -0.23882158 404.36158889 -0.24249994 406.07553611 -0.25362138 C423.34601573 -0.35826321 423.34601573 -0.35826321 430.92990398 6.15180016 C431.45970867 6.78472984 431.98951336 7.41765953 432.53537273 8.06976891 C433.07806805 8.69496422 433.62076336 9.32015953 434.17990398 9.96430016 C439.54362825 17.93520178 439.6797144 26.026025 438.72287273 35.25726891 C436.76959411 42.03731604 432.85998846 47.65578052 426.72287273 51.25726891 C418.75680746 55.28460406 410.44803669 54.68482778 401.74490643 54.65840721 C399.99763445 54.66401499 398.25036624 54.67091848 396.50310397 54.67900318 C391.7100355 54.69733404 386.9171242 54.69695918 382.12402868 54.69342005 C376.95140608 54.69280744 371.7788337 54.7093699 366.60623455 54.72359276 C356.47524986 54.74850131 346.34431754 54.75675678 336.21330479 54.75842989 C327.977511 54.75985589 319.74173448 54.76602269 311.50594616 54.77553177 C288.1508785 54.80194843 264.79585217 54.81579035 241.44076946 54.81354035 C239.55255414 54.81336054 239.55255414 54.81336054 237.62619305 54.81317711 C236.36584412 54.81305447 235.10549519 54.81293182 233.80695388 54.81280547 C213.38127436 54.81158612 192.95576075 54.84029462 172.53012922 54.88259221 C151.55225597 54.92569027 130.57446363 54.9464024 109.59654498 54.94381088 C97.82101958 54.9428152 86.04566812 54.95104597 74.27018261 54.98334503 C64.24430858 55.01066906 54.21868736 55.01717864 44.19279221 54.99681676 C39.07930012 54.98702539 33.96629298 54.98683431 28.8528471 55.01287651 C24.16697095 55.03649531 19.48196361 55.03215551 14.79610845 55.00602411 C13.10569722 55.00142412 11.4152209 55.00684929 9.72488645 55.02360434 C-0.27094637 55.11608278 -8.90922397 54.43616762 -17.27712727 48.25726891 C-23.09999423 41.44853704 -24.49600711 36.35766736 -24.58962727 27.63226891 C-24.61863117 26.75441734 -24.64763508 25.87656578 -24.67751789 24.97211266 C-24.74787049 17.68791303 -23.14316918 12.52786146 -18.31228352 7.01508141 C-17.66130695 6.47625328 -17.01033039 5.93742516 -16.33962727 5.38226891 C-15.69122883 4.82797203 -15.04283039 4.27367516 -14.37478352 3.70258141 C-9.67112763 0.46170119 -5.65852917 0.0061611 0 0 Z " fill="#3E3C55" transform="translate(366.2771272659302,231.74273109436035)"/>
<path d="M0 0 C0.72708557 -0.00410527 1.45417113 -0.00821054 2.2032896 -0.0124402 C4.64670184 -0.02377515 7.08988843 -0.02086643 9.53332233 -0.01802826 C11.30005268 -0.02319584 13.06678069 -0.02922224 14.83350545 -0.03603506 C19.69418952 -0.05217839 24.55481452 -0.05575438 29.41552222 -0.05723 C34.65563615 -0.06093053 39.89571941 -0.07602491 45.13581562 -0.08950043 C56.59656501 -0.11667029 68.05730042 -0.12871695 79.51807666 -0.13752174 C86.6733621 -0.14304595 93.82864213 -0.15152053 100.98392391 -0.16053009 C120.79239246 -0.18491566 140.60085667 -0.20551437 160.4093399 -0.21228027 C161.67725391 -0.21271941 162.94516791 -0.21315854 164.25150355 -0.21361098 C165.52246114 -0.21404753 166.79341873 -0.21448409 168.10289019 -0.21493387 C170.67835915 -0.21582081 173.25382811 -0.21671393 175.82929707 -0.21761322 C177.10682019 -0.21805608 178.38434332 -0.21849894 179.70057926 -0.21895522 C200.40262176 -0.22685183 221.10452349 -0.2617617 241.8065116 -0.30833226 C263.05773701 -0.35575276 284.30889177 -0.38068367 305.56017095 -0.38301611 C317.49329755 -0.38484999 329.42624073 -0.39636388 341.35931683 -0.43265533 C351.52035687 -0.46344856 361.68115681 -0.47370358 371.84223463 -0.45717913 C377.02634635 -0.44936285 382.20997448 -0.45124005 387.39402676 -0.47929382 C392.14220181 -0.50475379 396.88952949 -0.50239441 401.63770322 -0.4781124 C403.35307162 -0.47419509 405.06849985 -0.48037134 406.78378417 -0.49780113 C416.31621027 -0.58851253 424.11978336 -0.2858604 431.71284199 6.26285553 C433.96674824 8.93082428 433.96674824 8.93082428 435.27534199 11.45035553 C435.73038105 12.28953522 436.18542011 13.1287149 436.65424824 13.99332428 C439.83616668 20.81507563 439.79762481 28.99117188 437.95893574 36.23160553 C435.14838332 43.55006358 431.57870978 48.28065221 424.71284199 52.26285553 C420.1355922 54.09785249 416.29507479 54.51471592 411.37792969 54.52012444 C410.29778398 54.52538355 410.29778398 54.52538355 409.19581714 54.5307489 C406.78219996 54.54005484 404.3688245 54.53514171 401.95519733 54.53028107 C400.20751588 54.53401773 398.4598361 54.53861932 396.71215898 54.54401171 C391.90880415 54.55625507 387.10551891 54.55597967 382.30215204 54.55362296 C377.12206692 54.55321513 371.94200421 54.56425066 366.76192951 54.5737381 C356.61296588 54.59035624 346.46402547 54.59584801 336.31504937 54.59696285 C328.06631433 54.59791291 319.81758695 54.60202109 311.56885433 54.60836411 C288.18677825 54.62597849 264.80472054 54.63520263 241.42263778 54.63370316 C239.53154399 54.63358329 239.53154399 54.63358329 237.60224628 54.633461 C236.33997942 54.63337924 235.07771256 54.63329748 233.77719519 54.63321324 C213.31706887 54.63240021 192.85701614 54.65154156 172.39691111 54.67973773 C151.39313195 54.70845497 130.38938871 54.72227867 109.38558942 54.72055018 C97.59172541 54.71988589 85.79793856 54.72539521 74.00409222 54.74690628 C63.96312178 54.76510275 53.92226349 54.76947798 43.88128372 54.75588743 C38.75814942 54.74935016 33.63523036 54.7492681 28.51211643 54.76659393 C23.82093082 54.7822959 19.13013161 54.77949039 14.43895558 54.76202567 C12.74315658 54.75894945 11.04732895 54.76261156 9.35156371 54.77374582 C-0.43591302 54.83374624 -8.36429014 54.47913435 -16.59184551 48.62223053 C-17.11004864 48.09113678 -17.62825176 47.56004303 -18.16215801 47.01285553 C-18.96266582 46.23168365 -18.96266582 46.23168365 -19.77934551 45.43473053 C-23.90619288 39.4903597 -24.79126306 33.35932065 -24.72465801 26.26285553 C-24.74463848 25.5074649 -24.76461895 24.75207428 -24.78520489 23.97379303 C-24.77939861 17.21528438 -22.78324659 12.1112747 -18.32231426 7.02066803 C-17.6713377 6.4818399 -17.02036114 5.94301178 -16.34965801 5.38785553 C-15.70125957 4.83355865 -15.05286114 4.27926178 -14.38481426 3.70816803 C-9.67934106 0.46603565 -5.66060226 0.01088978 0 0 Z " fill="#3E3C55" transform="translate(366.28715801239014,337.73714447021484)"/>
<path d="M0 0 C1.08889758 -0.00570851 1.08889758 -0.00570851 2.1997931 -0.01153234 C4.64530551 -0.02188256 7.09058729 -0.01793566 9.53611565 -0.01409245 C11.30198261 -0.01854301 13.06784758 -0.02385645 14.8337096 -0.02996117 C19.69665654 -0.04417374 24.55953968 -0.04580384 29.42250443 -0.04536426 C34.66331499 -0.04700963 39.90409904 -0.06007098 45.14489555 -0.07155704 C56.60984014 -0.09442904 68.07476624 -0.10233018 79.53973055 -0.10738349 C86.69718801 -0.11063828 93.85464008 -0.11715948 101.0120945 -0.12438488 C120.82481336 -0.14395451 140.6375272 -0.16035631 160.45025635 -0.16326141 C161.71870547 -0.16344898 162.98715459 -0.16363655 164.29404157 -0.16382981 C166.86556967 -0.16419606 169.43709778 -0.16455976 172.00862588 -0.16492092 C173.28515814 -0.16510373 174.56169039 -0.16528654 175.87690544 -0.16547489 C177.15499407 -0.16565544 178.43308269 -0.16583599 179.74990128 -0.16602201 C200.45845552 -0.16956346 221.16690575 -0.19658243 241.87542392 -0.23397278 C263.13113768 -0.27204426 284.38679982 -0.29141881 305.64254844 -0.29172093 C317.5790174 -0.29230579 329.51536233 -0.3008167 341.45179939 -0.32971859 C351.61650525 -0.35421705 361.78104187 -0.36152575 371.94576927 -0.34647106 C377.13184217 -0.33929567 382.31758078 -0.34018693 387.50361633 -0.36288166 C392.25359807 -0.3834689 397.00298846 -0.3808735 401.75296377 -0.36000682 C403.46903134 -0.35651143 405.18514156 -0.36142403 406.90115322 -0.37571125 C415.96614016 -0.44630525 424.27440653 -0.4904567 431.83588982 5.26006222 C439.01230506 12.79122587 440.37780561 20.24511448 440.20698357 30.49443722 C439.36517813 39.03654714 435.34276884 44.48009917 428.89838982 49.88506222 C424.17358016 53.03493532 420.18067515 53.51208226 414.54593849 53.52291775 C413.81855333 53.52702302 413.09116816 53.53112828 412.34174103 53.53535795 C409.8973195 53.54669292 407.45312353 53.54378418 405.00868034 53.54094601 C403.24123731 53.54611357 401.47379661 53.55213997 399.70635915 53.55895281 C394.84374447 53.57509609 389.98118884 53.57867212 385.11855054 53.58014774 C379.87641073 53.58384826 374.63430158 53.59894257 369.39217949 53.61241817 C357.92736514 53.63958747 346.46256477 53.65163446 334.99772358 53.66043949 C327.84043582 53.66596349 320.68315347 53.67443801 313.52586937 53.68344784 C293.71310961 53.70783276 273.90035417 53.72843197 254.08757973 53.73519802 C252.18533138 53.73585672 252.18533138 53.73585672 250.24465378 53.73652872 C248.3378342 53.73718356 248.3378342 53.73718356 246.39249301 53.73785162 C243.81649637 53.73873855 241.24049973 53.73963168 238.6645031 53.74053097 C237.38671766 53.74097383 236.10893223 53.74141669 234.79242602 53.74187297 C214.08324147 53.74977064 193.3741976 53.78468404 172.6650674 53.83125001 C151.40819676 53.87866225 130.15139674 53.90360102 108.89447236 53.90593386 C96.95746528 53.90776814 85.02064154 53.91929228 73.08368492 53.95557308 C62.92005446 53.98635509 52.75666399 53.99662793 42.59299579 53.98009688 C37.4069828 53.97227676 32.22145325 53.97417649 27.03549957 54.00221157 C22.28675988 54.02764846 17.53886786 54.02533252 12.79012969 54.00103015 C11.07343321 53.99710884 9.35667711 54.00330749 7.64006445 54.02071887 C-2.85215519 54.12039179 -9.89190667 53.30778696 -17.72896314 45.7512145 C-22.99855567 40.02668031 -23.52676539 33.77959418 -23.53911018 26.38506222 C-23.56360237 25.62064816 -23.58809456 24.85623409 -23.61332893 24.06865597 C-23.64811121 17.23973639 -21.72463458 12.13065012 -17.16411018 7.01787472 C-16.50411018 6.47904659 -15.84411018 5.94021847 -15.16411018 5.38506222 C-14.50411018 4.83076534 -13.84411018 4.27646847 -13.16411018 3.70537472 C-8.68613771 0.46933992 -5.58013402 0.00839832 0 0 Z " fill="#3F3D56" transform="translate(365.1641101837158,443.7399377822876)"/>
<path d="M0 0 C0.74378906 0.73089844 1.48757813 1.46179688 2.25390625 2.21484375 C2.84300781 2.79105469 3.43210937 3.36726562 4.0390625 3.9609375 C14.05466149 14.6425354 16.88495268 30.23063184 16.53515625 44.3828125 C15.28723539 61.38573424 9.14066934 73.81678184 -1.51416016 86.69384766 C-2.64129294 88.08545234 -3.70341483 89.529069 -4.7578125 90.9765625 C-12.22028362 100.55022387 -25.45551274 106.34348781 -37.40625 108.0390625 C-53.65880226 109.26003888 -68.81483269 106.18246906 -81.49975586 95.42407227 C-93.06981355 85.05722809 -99.80007872 72.04062444 -100.94921875 56.4609375 C-101.1462729 44.65410955 -98.60245368 34.46926054 -92.74609375 24.21484375 C-93.39835937 24.20066406 -94.050625 24.18648437 -94.72265625 24.171875 C-102.7627834 23.733107 -102.7627834 23.733107 -106.18359375 21.15234375 C-110.70395241 15.97046918 -112.06462413 11.5924421 -111.68359375 4.71484375 C-110.70997402 -2.85426447 -107.45578555 -9.60064836 -101.74609375 -14.78515625 C-71.63338069 -37.72100603 -25.62315355 -24.09939794 0 0 Z " fill="#2F2E41" transform="translate(1524.74609375,643.78515625)"/>
<path d="M0 0 C0.71647705 -0.00846954 1.4329541 -0.01693909 2.17114258 -0.02566528 C4.52012295 -0.04890399 6.86844306 -0.05006048 9.2175293 -0.04882812 C10.86508948 -0.05593873 12.51264721 -0.06363903 14.16020203 -0.07189941 C17.60735969 -0.08531489 21.05428845 -0.08692675 24.50146484 -0.08105469 C28.89617141 -0.07516774 33.28976974 -0.10572128 37.68426228 -0.14617157 C41.08603218 -0.17215778 44.4875393 -0.17491605 47.88939476 -0.17127991 C49.50836148 -0.17296162 51.1273416 -0.18251186 52.7462101 -0.20042419 C62.96297767 -0.30102182 71.70440587 0.10524544 79.60957336 7.38049316 C86.65009404 14.59536979 87.94040825 22.2754851 87.87768555 31.98242188 C87.88055573 32.97314697 87.8834259 33.96387207 87.88638306 34.98461914 C87.88841475 37.06885351 87.88294784 39.15310733 87.87036133 41.23730469 C87.85429527 44.41059382 87.87024097 47.58260942 87.8894043 50.75585938 C87.88742171 52.78971633 87.88357771 54.82357249 87.87768555 56.85742188 C87.88375824 57.797229 87.88983093 58.73703613 87.89608765 59.70532227 C87.80716688 68.11671495 85.73361499 74.66430723 80.47924805 81.41992188 C71.49179859 90.20311112 61.8952988 89.89506911 50.08081055 89.88867188 C48.47952004 89.89578497 46.87823204 89.90348562 45.27694702 89.91174316 C41.92992051 89.92514498 38.58312971 89.92677629 35.23608398 89.92089844 C30.97030883 89.91500718 26.70567372 89.94558913 22.44011879 89.98601532 C19.13528468 90.01200489 15.83072099 90.01475961 12.5257988 90.01112366 C10.9542797 90.01280449 9.38274669 90.02234605 7.81132889 90.04026794 C-2.89093302 90.14890668 -11.09187127 89.15575396 -19.45825195 81.85742188 C-23.87034323 76.64313218 -26.74787852 72.46495226 -26.8112793 65.42114258 C-26.824039 64.45275955 -26.83679871 63.48437653 -26.84994507 62.48664856 C-26.85217072 61.45013657 -26.85439636 60.41362457 -26.85668945 59.34570312 C-26.86334625 58.26669235 -26.87000305 57.18768158 -26.87686157 56.07597351 C-26.88697637 53.79391175 -26.89167896 51.51182048 -26.89135742 49.22973633 C-26.89571475 45.76202725 -26.93200466 42.29560772 -26.9699707 38.828125 C-26.97584246 36.60482203 -26.97980945 34.38151305 -26.98168945 32.15820312 C-26.99606049 31.13181229 -27.01043152 30.10542145 -27.02523804 29.04792786 C-26.97655211 21.26116699 -25.54067883 14.24931368 -20.6262207 8.01757812 C-19.99329102 7.51097656 -19.36036133 7.004375 -18.70825195 6.48242188 C-18.08305664 5.95777344 -17.45786133 5.433125 -16.8137207 4.89257812 C-11.18891852 1.28005611 -6.67871562 0.04370179 0 0 Z " fill="#1A1828" transform="translate(722.520751953125,933.580078125)"/>
<path d="M0 0 C7.87839955 0.07064839 15.72206719 2.00874006 23.40698242 3.58398438 C25.45712929 4.00402168 27.50867036 4.41662832 29.56054688 4.828125 C39.53045406 6.84348469 39.53045406 6.84348469 43 8 C43.70032761 15.60217301 41.27996012 21.01866287 38.19921875 27.88671875 C37.70282394 29.02501633 37.20642914 30.1633139 36.69499207 31.33610535 C35.65513422 33.7180318 34.60923399 36.09732876 33.55755615 38.47406006 C31.62034974 42.8594387 29.7222276 47.26109481 27.82440186 51.66362 C25.9764941 55.94551088 24.11567987 60.22174114 22.25482178 64.49801636 C20.25541759 69.09268627 18.25879999 73.68856552 16.26202393 78.28437805 C15.25723094 80.59700597 14.25230896 82.90957785 13.24725342 85.22209167 C8.30511878 96.59458585 3.3815909 107.97508134 -1.53442383 119.35888672 C-4.61155484 126.48338857 -7.69622107 133.60445009 -10.796875 140.71875 C-11.70216876 142.7983783 -12.60729817 144.87807806 -13.51239014 146.95779419 C-14.34575657 148.87038577 -15.18185017 150.78176836 -16.01806641 152.69311523 C-16.51483887 153.83466064 -17.01161133 154.97620605 -17.5234375 156.15234375 C-17.95575684 157.14226318 -18.38807617 158.13218262 -18.83349609 159.15209961 C-21.59463025 165.76293236 -21.59463025 165.76293236 -21.4375 172.75 C-20.65029729 179.13402199 -21.83607136 184.580862 -25.29296875 190.04296875 C-29.86821771 195.79576168 -35.64208901 199.36413897 -43.0078125 200.23828125 C-50.15956688 200.48898851 -56.53524321 198.93821777 -62.08203125 194.234375 C-67.20180407 188.7589127 -70.0150594 183.13652187 -70.4375 175.625 C-70.16567639 169.31869228 -68.33270044 163.54015403 -64.0234375 158.84765625 C-61.47919734 156.58559545 -59.0522945 154.52614725 -56 153 C-55.06362258 151.0468391 -55.06362258 151.0468391 -54.25439453 148.61865234 C-53.9179039 147.67294876 -53.58141327 146.72724518 -53.23472595 145.75288391 C-52.87109451 144.7077916 -52.50746307 143.66269928 -52.1328125 142.5859375 C-51.74617935 141.49407639 -51.3595462 140.40221527 -50.9611969 139.27726746 C-50.11949259 136.89819158 -49.28104071 134.51796315 -48.44540405 132.13674927 C-47.11317966 128.34132459 -45.7729307 124.5488423 -44.42895508 120.75756836 C-44.20216725 120.11780784 -43.97537943 119.47804731 -43.74171925 118.81890011 C-43.27900353 117.51376351 -42.81623755 116.20864473 -42.35342216 114.90354347 C-41.64646406 112.90919447 -40.94036951 110.91454127 -40.23439026 108.91984558 C-35.46079066 95.44001257 -30.58518254 81.99771066 -25.6875 68.5625 C-25.27488922 67.43017944 -24.86227844 66.29785889 -24.43716431 65.13122559 C-22.40846654 59.5646507 -20.37822598 53.99864136 -18.34667969 48.43310547 C-16.41136083 43.13007519 -14.48116255 37.82519961 -12.55296326 32.51957703 C-11.1382692 28.62804292 -9.72125784 24.73735565 -8.30361938 20.84689331 C-7.64823762 19.04703018 -6.99374259 17.24684389 -6.34017944 15.44631958 C-5.4546531 13.00752462 -4.56569566 10.57000901 -3.67578125 8.1328125 C-3.41640778 7.41597794 -3.1570343 6.69914337 -2.88980103 5.96058655 C-1.11418832 1.11418832 -1.11418832 1.11418832 0 0 Z " fill="#FEB7B8" transform="translate(1370,898)"/>
<path d="M0 0 C1.79423149 -0.01029488 1.79423149 -0.01029488 3.62471008 -0.02079773 C6.88518096 -0.03589915 10.14529075 -0.03757738 13.40578151 -0.03185534 C16.13672978 -0.02875087 18.86762704 -0.03486985 21.59856802 -0.04089409 C28.04557343 -0.05490917 34.49244625 -0.05340326 40.93945312 -0.04199219 C47.57086023 -0.03051346 54.20186279 -0.04458902 60.83321661 -0.07138866 C66.54560201 -0.09360248 72.25786094 -0.10017033 77.97028643 -0.09431225 C81.37377753 -0.09095502 84.77700938 -0.09327471 88.18046379 -0.11056328 C91.97868603 -0.12548282 95.7760237 -0.11478746 99.57421875 -0.09765625 C100.68878448 -0.10732422 101.80335022 -0.11699219 102.95169067 -0.12695312 C111.87001604 -0.04295877 119.31325893 2.05232068 125.85180664 8.40405273 C132.05287513 16.55402846 132.72121575 24.42235576 131.85180664 34.40405273 C130.2729464 41.39074565 126.85290535 47.33496243 120.85180664 51.40405273 C113.94395368 54.62939588 107.89314729 54.84316515 100.33642578 54.82397461 C99.10125717 54.83244415 97.86608856 54.8409137 96.5934906 54.84963989 C93.22551948 54.86895324 89.85810395 54.87479259 86.4901154 54.87289238 C83.66969296 54.87277216 80.84932157 54.88135696 78.02891344 54.8896699 C71.37096579 54.90886144 64.7131435 54.91180304 58.05517578 54.9050293 C51.2055791 54.89838846 44.35652091 54.92126377 37.50703341 54.95834303 C31.60781047 54.9891095 25.70876017 55.00039267 19.80945867 54.99650621 C16.29411815 54.99444619 12.7791971 54.99980132 9.26393318 55.0243988 C5.34127078 55.05094409 1.41930616 55.03688503 -2.50341797 55.01928711 C-3.65538666 55.03255035 -4.80735535 55.0458136 -5.99423218 55.05947876 C-14.2352121 54.97377679 -20.27687879 53.16842492 -26.26928711 47.34155273 C-26.70370117 46.70217773 -27.13811523 46.06280273 -27.58569336 45.40405273 C-28.0381543 44.76467773 -28.49061523 44.12530273 -28.95678711 43.46655273 C-33.4871572 35.62381369 -33.31361402 26.11313877 -31.53100586 17.38061523 C-29.38564549 11.21033098 -25.70992673 6.83015319 -20.14819336 3.40405273 C-13.32828198 0.25217239 -7.45265324 -0.03004614 0 0 Z " fill="#3E3C56" transform="translate(660.148193359375,548.595947265625)"/>
<path d="M0 0 C1.32846954 -0.00788544 1.32846954 -0.00788544 2.68377686 -0.01593018 C5.58884726 -0.02905066 8.49336227 -0.02042036 11.3984375 -0.01025391 C13.43050236 -0.01227693 15.46256652 -0.01519026 17.49462891 -0.01895142 C21.74453676 -0.02336401 25.9942549 -0.016978 30.24414062 -0.00292969 C35.67789819 0.01416144 41.11121112 0.00431456 46.54495239 -0.01364708 C50.7383964 -0.02451367 54.93173587 -0.02102537 59.12518311 -0.0132637 C61.12815403 -0.01126965 63.13113459 -0.0136929 65.13409424 -0.02070236 C67.93860841 -0.02836423 70.74241333 -0.01664653 73.546875 0 C74.36581238 -0.00607269 75.18474976 -0.01214539 76.02850342 -0.0184021 C84.38501333 0.07298533 90.86028098 2.62046834 97.0078125 8.36865234 C101.17133444 13.13091085 103.55733168 18.8720937 103.1484375 25.28662109 C101.81955987 32.73387281 98.9500867 37.95799896 93.26171875 42.91552734 C86.66517442 46.8196046 79.98458439 47.83392803 72.43334961 47.79223633 C71.10466103 47.8025312 71.10466103 47.8025312 69.74913025 47.81303406 C66.84951305 47.83119043 63.95044254 47.82748152 61.05078125 47.82177734 C59.02014492 47.82634359 56.98951013 47.83165047 54.95887756 47.83766174 C50.71495257 47.84657022 46.471216 47.84419443 42.22729492 47.83422852 C36.80132184 47.82272526 31.37599825 47.8429829 25.95011044 47.87214565 C21.76094975 47.89052753 17.57194428 47.89021149 13.38275337 47.88450813 C11.38256479 47.88435525 9.38236548 47.89037207 7.3822155 47.90279961 C4.58244354 47.91775031 1.78386654 47.90700371 -1.01586914 47.88989258 C-1.83323547 47.89956055 -2.65060181 47.90922852 -3.49273682 47.91918945 C-10.55188556 47.82927719 -15.64585306 45.61697811 -20.9765625 41.01318359 C-26.91430406 34.08581844 -28.61940869 29.17218278 -28.5 20.20458984 C-27.84144405 13.42146357 -24.43145068 9.06022808 -19.3984375 4.71240234 C-13.04651549 0.83955781 -7.26877463 -0.05390038 0 0 Z " fill="#1A1828" transform="translate(346.2265625,954.61181640625)"/>
<path d="M0 0 C20.46 0 40.92 0 62 0 C62 20.79 62 41.58 62 63 C51.11 63 40.22 63 29 63 C29 88.41 29 113.82 29 140 C-4.66 140 -38.32 140 -73 140 C-73 106.34 -73 72.68 -73 38 C-48.91 38 -24.82 38 0 38 C0 25.46 0 12.92 0 0 Z M-68 43 C-68 73.36 -68 103.72 -68 135 C-37.64 135 -7.28 135 24 135 C24 111.24 24 87.48 24 63 C16.08 63 8.16 63 0 63 C0 56.4 0 49.8 0 43 C-22.44 43 -44.88 43 -68 43 Z " fill="#6C62FF" transform="translate(1074,845)"/>
<path d="M0 0 C33.66 0 67.32 0 102 0 C102 33.66 102 67.32 102 102 C77.91 102 53.82 102 29 102 C29 114.54 29 127.08 29 140 C8.54 140 -11.92 140 -33 140 C-33 119.21 -33 98.42 -33 77 C-22.11 77 -11.22 77 0 77 C0 51.59 0 26.18 0 0 Z M5 5 C5 28.76 5 52.52 5 77 C12.92 77 20.84 77 29 77 C29 83.6 29 90.2 29 97 C51.44 97 73.88 97 97 97 C97 66.64 97 36.28 97 5 C66.64 5 36.28 5 5 5 Z " fill="#6C62FF" transform="translate(33,258)"/>
<path d="M0 0 C0.98489004 8.42487241 1.37836771 16.85799734 1.74023438 25.32861328 C1.80747611 26.85404537 1.87497287 28.37946624 1.94270325 29.90487671 C2.08722293 33.17096506 2.23004449 36.43712153 2.37153625 39.70334244 C2.59559121 44.87324006 2.82401812 50.04293901 3.05310059 55.21261597 C3.62116343 68.0475251 4.1831794 80.88269828 4.74468994 93.71789551 C5.18177893 103.70699175 5.62039733 113.69601629 6.06335115 123.68485439 C6.29085163 128.81900312 6.5153032 133.95327314 6.73740387 139.08765817 C6.87636555 142.28501211 7.01801005 145.48224316 7.1603756 148.67944717 C7.22559524 150.15637318 7.28971523 151.63334825 7.35262489 153.11037445 C7.15703993 166.31477116 7.15703993 166.31477116 11.5 178.3125 C15.63194318 184.23415113 15.74099448 189.92608758 15 197 C12.40729381 205.68677727 7.20523836 210.06371169 -0.4375 214.375 C-4.29123029 215.31493422 -8.05733071 215.12920267 -12 215 C-12.1556543 213.92951416 -12.1556543 213.92951416 -12.31445312 212.83740234 C-13.69691363 203.57809834 -15.33379945 194.37438563 -17.03173828 185.16845703 C-17.50292785 182.60909678 -17.968368 180.04873145 -18.43359375 177.48828125 C-18.73663153 175.83847778 -19.04000495 174.18873591 -19.34375 172.5390625 C-19.48026978 171.78476959 -19.61678955 171.03047668 -19.75744629 170.25332642 C-20.39517105 166.82303091 -21.13135913 163.54217481 -22.09570312 160.18115234 C-23.0112012 156.96059623 -23.16236054 154.32839115 -23 151 C-22.34 151 -21.68 151 -21 151 C-20.98541748 150.33508545 -20.97083496 149.6701709 -20.95581055 148.98510742 C-20.57159003 132.97139368 -19.6016774 117.11039085 -18.15917969 101.16381836 C-17.28959677 91.53110459 -16.54891989 81.9033435 -15.9375 72.25 C-15.39454662 63.69639605 -14.78531069 55.15982664 -14 46.625 C-12.66578159 32.10759071 -11.85899094 17.55174848 -11 3 C-9.73160474 2.49384702 -8.46016898 1.99530901 -7.1875 1.5 C-6.12595703 1.08234375 -6.12595703 1.08234375 -5.04296875 0.65625 C-3 0 -3 0 0 0 Z " fill="#FEB7B8" transform="translate(1582,923)"/>
<path d="M0 0 C278.19 0 556.38 0 843 0 C843.33 1.65 843.66 3.3 844 5 C565.15 5 286.3 5 -1 5 C-0.67 3.35 -0.34 1.7 0 0 Z " fill="#3E3D55" transform="translate(1044,1483)"/>
<path d="M0 0 C6.33754022 0.40841926 11.76091979 1.00829585 16.63671875 5.51171875 C19.08164341 9.97423167 18.43568918 15.09885482 18.43945312 20.08984375 C18.53744391 25.11211404 18.53744391 25.11211404 20.66015625 29.57421875 C23.6424219 31.39145909 25.52654738 31.43841266 29 31.3125 C30.03125 31.28800781 31.0625 31.26351562 32.125 31.23828125 C34.57216355 31.03545927 36.63734293 30.60123281 39 30 C48.55263158 29.13157895 48.55263158 29.13157895 53.125 31.875 C56.25273634 35.41976785 56.26368491 37.86515419 56.234375 42.4375 C55.98619951 45.15088541 55.35557718 47.41712551 54.5 50 C52.70606191 55.57155771 51.58709847 60.67415772 53.94921875 66.234375 C56.28847199 70.27825757 58.51543188 73.34265961 63 75 C66.66092205 75.51781076 70.30840897 75.81251114 74 76 C64.81664174 83.54501266 52.44294582 84.73649473 41 84 C24.72789873 81.68940078 11.96045506 74.04021359 1.83203125 61.265625 C-6.53168813 48.92512646 -9.70523157 34.39954015 -7.50390625 19.68359375 C-6.00711629 12.52098867 -3.62569723 6.34855285 0 0 Z " fill="#FDB7B7" transform="translate(1432,668)"/>
<path d="M0 0 C33.66 0 67.32 0 102 0 C102 33.66 102 67.32 102 102 C68.34 102 34.68 102 0 102 C0 68.34 0 34.68 0 0 Z M5 5 C5 35.36 5 65.72 5 97 C35.36 97 65.72 97 97 97 C97 73.24 97 49.48 97 25 C89.08 25 81.16 25 73 25 C73 18.4 73 11.8 73 5 C50.56 5 28.12 5 5 5 Z " fill="#3F3D58" transform="translate(1001,883)"/>
<path d="M0 0 C33.66 0 67.32 0 102 0 C102 33.66 102 67.32 102 102 C68.34 102 34.68 102 0 102 C0 68.34 0 34.68 0 0 Z M5 5 C5 28.76 5 52.52 5 77 C12.92 77 20.84 77 29 77 C29 83.6 29 90.2 29 97 C51.44 97 73.88 97 97 97 C97 66.64 97 36.28 97 5 C66.64 5 36.28 5 5 5 Z " fill="#3F3D58" transform="translate(33,258)"/>
<path d="M0 0 C21.81135508 -0.66795669 38.42606953 0.02564893 55.1875 15.5625 C60.74232053 21.32994524 64.36864692 27.9331021 68 35 C68.4228125 35.69351563 68.845625 36.38703125 69.28125 37.1015625 C70.2546151 39.67251597 69.72234412 41.39956118 69 44 C50.46633997 44.53348488 33.65539603 43.4018734 18.8125 30.9375 C10.43848022 22.92698268 3.95118866 12.90051546 0 2 C0 1.34 0 0.68 0 0 Z " fill="#1A1828" transform="translate(320,787)"/>
<path d="M0 0 C7.15999788 -0.1791866 13.97765518 0.50821356 21.0625 1.5 C24.671875 1.995 28.28125 2.49 32 3 C32 11.58 32 20.16 32 29 C22.76 29 13.52 29 4 29 C1.74750357 21.11626248 1.74750357 21.11626248 1.3671875 18.02734375 C1.24150391 17.01897461 1.24150391 17.01897461 1.11328125 15.99023438 C1.03464844 15.31283203 0.95601562 14.63542969 0.875 13.9375 C0.78863281 13.25623047 0.70226563 12.57496094 0.61328125 11.87304688 C0.13151798 7.89276462 -0.08753081 4.00766057 0 0 Z " fill="#F9B4B4" transform="translate(1543,1424)"/>
<path d="M0 0 C10.72192025 -0.4519779 21.3540176 0.8851443 32 2 C32.02886984 5.97915159 32.04675406 9.95827653 32.0625 13.9375 C32.07087891 15.07380859 32.07925781 16.21011719 32.08789062 17.38085938 C32.09111328 18.46044922 32.09433594 19.54003906 32.09765625 20.65234375 C32.10289307 21.65257568 32.10812988 22.65280762 32.11352539 23.68334961 C32 26 32 26 31 27 C28.92737924 27.08767112 26.85179706 27.10695873 24.77734375 27.09765625 C23.51728516 27.09443359 22.25722656 27.09121094 20.95898438 27.08789062 C19.61848891 27.07953403 18.27799412 27.07106907 16.9375 27.0625 C15.59310058 27.0574866 14.2486994 27.05292342 12.90429688 27.04882812 C9.60282059 27.03699488 6.30143197 27.02050971 3 27 C1.70069849 20.43096975 0.68348781 14.0028294 0.375 7.3125 C0.33632812 6.59900391 0.29765625 5.88550781 0.2578125 5.15039062 C0.16565282 3.43391652 0.0818643 1.71699592 0 0 Z " fill="#FAB4B5" transform="translate(1409,1426)"/>
<path d="M0 0 C3.66061645 1.83030823 5.55189 3.37842807 7.9375 6.6875 C9.35654771 11.11158992 9.40844403 14.55916828 8 19 C5.59005601 22.86310424 3.36348215 25.54550595 -1 27 C-5.06311767 27.48953225 -9.16483044 27.90076551 -12.91796875 26.05859375 C-16.94263759 22.88854594 -18.55585286 19.87070716 -19.3203125 14.9296875 C-19.67709431 10.35357303 -19.21282636 7.64632279 -16.25 4.0625 C-11.2736337 -1.25316401 -6.86936212 -1.6338587 0 0 Z " fill="#6A62FB" transform="translate(759,564)"/>
<path d="M0 0 C3.61042624 1.83927374 5.57204895 3.40639047 7.9375 6.6875 C9.66414689 12.07057559 8.95161365 16.69609327 6.8125 21.875 C3.97888992 25.19716355 1.16069558 26.68247843 -3.1796875 27.3203125 C-7.24200165 27.52547988 -9.65748281 27.16491568 -13.375 25.375 C-17.36967893 21.76076668 -19.1206612 18.35559774 -19.4375 13 C-19.2674846 8.76580697 -17.72839737 6.25891908 -15 3 C-10.27063331 -1.15611012 -6.01547527 -1.45829703 0 0 Z " fill="#6B62FB" transform="translate(713,564)"/>
<path d="M0 0 C4.229838 3.46077654 5.56996197 5.65537744 6.1875 11.125 C5.98457475 15.79228067 4.53671773 18.50993146 1.75 22.25 C-2.90371863 25.60500646 -7.68174162 26.14810619 -13.25 25.25 C-17.63253554 23.05873223 -20.41669816 20.83325461 -22.25 16.25 C-22.965328 11.48114667 -22.73847963 8.19206786 -20.5 3.875 C-14.52519802 -3.09560231 -8.41322067 -4.53019575 0 0 Z " fill="#6B62FB" transform="translate(670.25,565.75)"/>
<path d="M0 0 C3.18659257 2.81169932 5.70185146 5.51947314 6.4765625 9.83203125 C6.67361526 14.51651285 5.80912636 17.93828134 3.125 21.875 C-0.43638891 25.17579948 -3.19218366 26.1500859 -7.9375 26.3125 C-12.04139045 26.1156117 -14.748619 25.72552386 -17.875 22.875 C-21.27824775 18.09205721 -22.73243959 14.87707711 -21.875 8.875 C-20.49270638 5.29729886 -18.60392367 2.53960687 -15.75 -0.0625 C-10.53842596 -1.98851649 -5.18136559 -2.02749088 0 0 Z " fill="#6B62FC" transform="translate(519.875,459.125)"/>
<path d="M0 0 C3.48488515 1.99223329 6.19540905 4.3908181 8 8 C8.41402308 12.49851996 8.53240604 16.63940679 6.875 20.875 C3.85190292 24.30117669 1.22526146 26.67904883 -3.4375 27.3515625 C-8.35741086 27.51263101 -12.15755156 27.37669711 -16 24 C-19.62412233 20.00096846 -19.44429646 15.74158997 -19.28515625 10.59375 C-18.79862285 6.16829553 -17.21539999 4.10145624 -14 1.1875 C-9.3269877 -0.66223404 -4.94296932 -0.89679586 0 0 Z " fill="#6B62FC" transform="translate(472,458)"/>
<path d="M0 0 C3.49029792 1.97277708 6.19844633 4.39689265 8 8 C8.60110663 12.58819366 9.04707002 17.09473018 6.765625 21.24609375 C3.74888789 24.83780303 1.56465145 26.64579115 -3.234375 27.30859375 C-8.16819827 27.56141389 -11.20807729 27.40485038 -15.0625 24.125 C-18.46306827 20.81244644 -19.2216097 18.55554437 -19.4375 13.8125 C-19.41655993 8.5007023 -18.20033382 5.97038536 -14.5078125 2.2421875 C-10.37020428 -1.16651564 -5.07976692 -0.76161567 0 0 Z " fill="#6B62FC" transform="translate(426,458)"/>
<path d="M0 0 C3.48350269 1.99753301 6.19448387 4.38896774 8 8 C8.60110663 12.58819366 9.04707002 17.09473018 6.765625 21.24609375 C3.746729 24.84037339 1.55688195 26.69194193 -3.26953125 27.2734375 C-10.98236748 27.58147704 -10.98236748 27.58147704 -14.5 24.75 C-18.57396339 20.26864027 -19.40595044 17.12529807 -19.25 11.1796875 C-18.76959401 6.99114777 -16.66983221 4.77449349 -14 1.6875 C-9.4128794 -0.89275534 -5.13221205 -0.99711548 0 0 Z " fill="#6B62FD" transform="translate(380,458)"/>
<path d="M0 0 C1.01151878 -0.00786278 1.01151878 -0.00786278 2.04347229 -0.0158844 C3.46817652 -0.02230064 4.89293376 -0.02097264 6.31762695 -0.01245117 C8.49331447 -0.00394765 10.66636928 -0.03268967 12.84179688 -0.06445312 C14.2278638 -0.06606552 15.61393536 -0.06548687 17 -0.0625 C18.25868896 -0.06435303 19.51737793 -0.06620605 20.81420898 -0.06811523 C24.62033918 0.51904771 25.80654707 1.36780722 28.06640625 4.43359375 C28.56640625 7.43359375 28.56640625 7.43359375 28.06640625 10.43359375 C25.81179259 13.48492978 24.6174839 14.34546124 20.83007812 14.95117188 C18.9515918 14.95793945 18.9515918 14.95793945 17.03515625 14.96484375 C16.36222534 14.96867065 15.68929443 14.97249756 14.99597168 14.97644043 C13.57721455 14.97915505 12.15840698 14.97182509 10.73974609 14.95507812 C8.57275422 14.9336565 6.40907674 14.95488913 4.2421875 14.98046875 C2.86066979 14.97782539 1.47915415 14.97270022 0.09765625 14.96484375 C-1.15466797 14.96033203 -2.40699219 14.95582031 -3.69726562 14.95117188 C-6.93359375 14.43359375 -6.93359375 14.43359375 -9.37695312 12.62304688 C-10.93359375 10.43359375 -10.93359375 10.43359375 -10.87109375 6.87109375 C-9.09406027 0.35530431 -6.51230555 0.05048299 0 0 Z " fill="#3D3B54" transform="translate(766.93359375,969.56640625)"/>
<path d="M0 0 C1.01151878 -0.00786278 1.01151878 -0.00786278 2.04347229 -0.0158844 C3.46817652 -0.02230064 4.89293376 -0.02097264 6.31762695 -0.01245117 C8.49331447 -0.00394765 10.66636928 -0.03268967 12.84179688 -0.06445312 C14.2278638 -0.06606552 15.61393536 -0.06548687 17 -0.0625 C18.25868896 -0.06435303 19.51737793 -0.06620605 20.81420898 -0.06811523 C24.62033918 0.51904771 25.80654707 1.36780722 28.06640625 4.43359375 C28.56640625 7.43359375 28.56640625 7.43359375 28.06640625 10.43359375 C25.81293983 13.48026652 24.60959247 14.34405981 20.83007812 14.96704102 C18.9515918 14.98335571 18.9515918 14.98335571 17.03515625 15 C16.36222534 15.00619858 15.68929443 15.01239716 14.99597168 15.01878357 C13.57724449 15.02586816 12.15843393 15.02273126 10.73974609 15.01000977 C8.57233459 14.99613171 6.40923508 15.03023311 4.2421875 15.06835938 C2.86067603 15.06931058 1.47915917 15.06745166 0.09765625 15.0625 C-1.78083008 15.06358765 -1.78083008 15.06358765 -3.69726562 15.06469727 C-6.93359375 14.43359375 -6.93359375 14.43359375 -9.37695312 12.08959961 C-10.93359375 9.43359375 -10.93359375 9.43359375 -10.87109375 6.30859375 C-8.89760673 0.2565669 -6.11324304 0.04738948 0 0 Z " fill="#3D3B54" transform="translate(719.93359375,969.56640625)"/>
<path d="M0 0 C0.65073486 -0.00524185 1.30146973 -0.0104837 1.97192383 -0.0158844 C3.34357276 -0.02228907 4.71527674 -0.02098767 6.08691406 -0.01245117 C8.18133521 -0.00393133 10.27303497 -0.03273099 12.3671875 -0.06445312 C13.70312419 -0.06606517 15.03906568 -0.06548753 16.375 -0.0625 C18.19064453 -0.06527954 18.19064453 -0.06527954 20.04296875 -0.06811523 C23.77423695 0.52720745 24.96406572 1.42699688 27.1875 4.43359375 C27.69049316 8.54137124 27.51499345 9.94235358 25.1875 13.43359375 C20.09812262 15.13005288 14.69034818 14.69829235 9.36352539 14.72875977 C7.95619673 14.74030191 6.54891261 14.76078939 5.1418457 14.7902832 C3.10598076 14.83295032 1.07141267 14.84912331 -0.96484375 14.859375 C-2.7900354 14.88124878 -2.7900354 14.88124878 -4.65209961 14.90356445 C-7.8125 14.43359375 -7.8125 14.43359375 -10.24047852 12.62963867 C-11.8125 10.43359375 -11.8125 10.43359375 -11.8125 6.87109375 C-9.9388642 0.43047067 -6.26819952 0.0504827 0 0 Z " fill="#3D3B54" transform="translate(767.8125,950.56640625)"/>
<path d="M0 0 C0.65073486 -0.00524185 1.30146973 -0.0104837 1.97192383 -0.0158844 C3.34357276 -0.02228907 4.71527674 -0.02098767 6.08691406 -0.01245117 C8.18133521 -0.00393133 10.27303497 -0.03273099 12.3671875 -0.06445312 C13.70312419 -0.06606517 15.03906568 -0.06548753 16.375 -0.0625 C18.19064453 -0.06527954 18.19064453 -0.06527954 20.04296875 -0.06811523 C23.77423695 0.52720745 24.96406572 1.42699688 27.1875 4.43359375 C27.69049316 8.54137124 27.51499345 9.94235358 25.1875 13.43359375 C20.09624317 15.13067936 14.69244838 14.73766126 9.36352539 14.78369141 C7.95613088 14.80027385 6.54882138 14.827595 5.1418457 14.86572266 C3.10584159 14.92055007 1.0717994 14.94236525 -0.96484375 14.95703125 C-2.7900354 14.98676025 -2.7900354 14.98676025 -4.65209961 15.01708984 C-7.8125 14.43359375 -7.8125 14.43359375 -10.24047852 12.09619141 C-11.8125 9.43359375 -11.8125 9.43359375 -11.8125 6.30859375 C-9.74010938 0.35047072 -5.85094913 0.04712226 0 0 Z " fill="#3E3C54" transform="translate(720.8125,950.56640625)"/>
<path d="M0 0 C7.92 0 15.84 0 24 0 C24 6.6 24 13.2 24 20 C16.08 20 8.16 20 0 20 C0 13.4 0 6.8 0 0 Z " fill="#6C62FF" transform="translate(1074,888)"/>
<path d="M0 0 C7.92 0 15.84 0 24 0 C24 6.6 24 13.2 24 20 C16.08 20 8.16 20 0 20 C0 13.4 0 6.8 0 0 Z " fill="#6C62FF" transform="translate(38,335)"/>
<path d="M0 0 C1.08166443 -0.00218285 1.08166443 -0.00218285 2.18518066 -0.00440979 C3.70829309 -0.00275137 5.23142237 0.0088039 6.75439453 0.02954102 C9.08568501 0.05849359 11.41470092 0.05015179 13.74609375 0.03710938 C15.22657355 0.04334713 16.70704617 0.05173836 18.1875 0.0625 C18.8844397 0.05956436 19.58137939 0.05662872 20.29943848 0.05360413 C23.14715513 0.1091086 25.13684749 0.18786861 27.53320312 1.80444336 C29.33670751 4.6811657 28.94545661 7.21349873 28.59375 10.49609375 C27.51953125 12.19213867 27.51953125 12.19213867 25.59375 13.49609375 C22.36328125 13.8684082 22.36328125 13.8684082 18.40625 13.859375 C17.70733643 13.8598735 17.00842285 13.86037201 16.28833008 13.86088562 C14.81230828 13.85854767 13.33628231 13.8488354 11.86035156 13.83227539 C9.60185067 13.80867839 7.34453038 13.81171645 5.0859375 13.81835938 C-5.98740848 13.77532143 -5.98740848 13.77532143 -9.40625 11.49609375 C-10.93091583 5.61523982 -10.93091583 5.61523982 -9.37695312 2.30053711 C-6.50516339 -0.32897205 -3.70064542 -0.05965074 0 0 Z " fill="#3E3C55" transform="translate(766.40625,989.50390625)"/>
<path d="M0 0 C1.08166443 -0.00218285 1.08166443 -0.00218285 2.18518066 -0.00440979 C3.70829309 -0.00275137 5.23142237 0.0088039 6.75439453 0.02954102 C9.08568501 0.05849359 11.41470092 0.05015179 13.74609375 0.03710938 C15.22657355 0.04334713 16.70704617 0.05173836 18.1875 0.0625 C18.8844397 0.05956436 19.58137939 0.05662872 20.29943848 0.05360413 C23.14715513 0.1091086 25.13684749 0.18786861 27.53320312 1.80444336 C29.33670751 4.6811657 28.94545661 7.21349873 28.59375 10.49609375 C27.51953125 12.19213867 27.51953125 12.19213867 25.59375 13.49609375 C22.36328125 13.8684082 22.36328125 13.8684082 18.40625 13.859375 C17.70733643 13.8598735 17.00842285 13.86037201 16.28833008 13.86088562 C14.81230828 13.85854767 13.33628231 13.8488354 11.86035156 13.83227539 C9.60185067 13.80867839 7.34453038 13.81171645 5.0859375 13.81835938 C-5.98740848 13.77532143 -5.98740848 13.77532143 -9.40625 11.49609375 C-10.93091583 5.61523982 -10.93091583 5.61523982 -9.37695312 2.30053711 C-6.50516339 -0.32897205 -3.70064542 -0.05965074 0 0 Z " fill="#3E3C55" transform="translate(719.40625,989.50390625)"/>
</svg>
